<svg width="92" height="92" viewBox="0 0 92 92" fill="none" xmlns="http://www.w3.org/2000/svg">
<path d="M46 91C70.8528 91 91 70.8528 91 46C91 21.1472 70.8528 1 46 1C21.1472 1 1 21.1472 1 46C1 70.8528 21.1472 91 46 91Z" fill="#F0E9D7" stroke="#BE9360" stroke-width="2" stroke-miterlimit="10"/>
<path d="M45.9997 83.9095C66.9365 83.9095 83.9091 66.9367 83.9091 46C83.9091 25.0632 66.9365 8.09045 45.9997 8.09045C25.0629 8.09045 8.09033 25.0632 8.09033 46C8.09033 66.9367 25.0629 83.9095 45.9997 83.9095Z" stroke="#BE9360" stroke-width="2" stroke-miterlimit="10"/>
<path d="M60.967 66.8839L25.9316 45.9999L60.6786 25.116" stroke="#590A10" stroke-width="4" stroke-miterlimit="10"/>
</svg>
