<svg width="57" height="57" viewBox="0 0 57 57" fill="none" xmlns="http://www.w3.org/2000/svg">
<path d="M28.5 56.0001C43.6878 56.0001 56 43.688 56 28.5001C56 13.3123 43.6878 1 28.5 1C13.3122 1 1 13.3123 1 28.5001C1 43.688 13.3122 56.0001 28.5 56.0001Z" fill="#F1C74F" stroke="#BE9360" stroke-width="2" stroke-miterlimit="10"/>
<path d="M28.5005 50.3505C40.5682 50.3505 50.351 40.5678 50.351 28.5C50.351 16.4323 40.5682 6.64941 28.5005 6.64941C16.4327 6.64941 6.6499 16.4323 6.6499 28.5C6.6499 40.5678 16.4327 50.3505 28.5005 50.3505Z" stroke="#BE9360" stroke-width="2" stroke-miterlimit="10"/>
<path d="M36.4713 20.5291H20.5293V36.4711H36.4713V20.5291Z" fill="#F0E9D7" stroke="#BE9360" stroke-width="2" stroke-miterlimit="10"/>
</svg>
