<svg width="57" height="57" viewBox="0 0 57 57" fill="none" xmlns="http://www.w3.org/2000/svg">
<path d="M28.5 56.0001C43.6878 56.0001 56 43.6879 56 28.5001C56 13.3123 43.6878 1 28.5 1C13.3122 1 1 13.3123 1 28.5001C1 43.6879 13.3122 56.0001 28.5 56.0001Z" fill="#F0E9D7" stroke="#BE9360" stroke-width="2" stroke-miterlimit="10"/>
<path d="M28.4999 50.3505C40.5677 50.3505 50.3505 40.5677 50.3505 28.5C50.3505 16.4323 40.5677 6.64941 28.4999 6.64941C16.4322 6.64941 6.64941 16.4323 6.64941 28.5C6.64941 40.5677 16.4322 50.3505 28.4999 50.3505Z" stroke="#BE9360" stroke-width="2" stroke-miterlimit="10"/>
<path d="M36.4713 20.5291H20.5293V36.4711H36.4713V20.5291Z" fill="#F0E9D7" stroke="#BE9360" stroke-width="2" stroke-miterlimit="10"/>
</svg>
