<svg width="273" height="308" viewBox="0 0 273 308" fill="none" xmlns="http://www.w3.org/2000/svg">
<path d="M271.12 1H1.12012V306.999H271.12V1Z" fill="#939393" stroke="#F0E9D7" stroke-width="2" stroke-miterlimit="10"/>
<path d="M260.937 14.3533H11.3135V293.655H260.937V14.3533Z" fill="#A3A3A3" stroke="#F0E9D7" stroke-width="2" stroke-miterlimit="10"/>
<path d="M136.12 63.854C61.567 63.854 1.12012 40.6045 1.12012 1H271.12C271.12 43.3088 210.683 63.854 136.12 63.854Z" fill="#848484" stroke="#F0E9D7" stroke-width="2" stroke-miterlimit="10"/>
<path d="M136.12 124.004C160.877 124.004 180.945 103.935 180.945 79.179C180.945 54.4228 160.877 34.354 136.12 34.354C111.364 34.354 91.2954 54.4228 91.2954 79.179C91.2954 103.935 111.364 124.004 136.12 124.004Z" fill="#7C7C7C" stroke="#F0E9D7" stroke-width="2" stroke-miterlimit="10"/>
<path d="M136.12 116.941C156.976 116.941 173.882 100.034 173.882 79.1788C173.882 58.3235 156.976 41.4167 136.12 41.4167C115.265 41.4167 98.3584 58.3235 98.3584 79.1788C98.3584 100.034 115.265 116.941 136.12 116.941Z" stroke="#F0E9D7" stroke-width="2" stroke-miterlimit="10"/>
<path d="M144.639 99.5554C144.489 98.5707 143.998 97.6699 143.252 97.0096C142.174 96.3229 140.961 95.8737 139.696 95.692C139.349 95.6326 139.24 95.4641 139.369 95.1769C139.428 95.0877 139.587 95.0382 139.845 95.0382C140.102 95.0382 141.251 95.0977 143.322 95.2264L145.303 95.3156C145.61 95.3232 145.909 95.2173 146.143 95.0181C146.377 94.8189 146.529 94.5403 146.571 94.2358C146.768 91.748 146.831 89.2513 146.759 86.7567C146.759 85.0925 146.759 83.9434 146.759 83.3193C146.759 80.5258 146.561 79.1291 146.244 79.1291C145.927 79.1291 145.57 79.654 144.788 80.6843C141.906 84.4156 138.424 87.6427 134.485 90.2337C133.287 91.0262 132.603 91.3333 132.415 91.2243C132.227 91.1154 132.484 90.6201 133.307 89.9563C135.805 87.6131 137.98 84.9482 139.775 82.0315C141.758 78.8794 143.392 75.5214 144.649 72.0165C144.844 71.4344 144.976 70.8334 145.045 70.2235C144.961 69.8983 144.809 69.5945 144.599 69.332H140.459C138.699 69.2922 136.938 69.3683 135.189 69.5598L134.059 69.7084C133.841 69.3914 133.653 69.2329 133.495 69.2329C132.742 69.2329 132.521 73.4231 132.831 81.8037L132.98 86.0336V87.7771L132.455 88.1039C131.897 88.5267 131.255 88.8241 130.572 88.9757C130.043 89.139 129.477 89.139 128.948 88.9757C128.75 88.8999 128.582 88.763 128.468 88.5847C128.354 88.4064 128.3 88.1962 128.314 87.985C128.357 87.7735 128.331 87.5536 128.238 87.3587C128.145 87.1637 127.991 87.0045 127.799 86.9053C126.787 86.7419 125.76 86.692 124.738 86.7567L121.964 86.8063C121.643 87.1001 121.442 87.5024 121.399 87.9356C121.367 88.157 121.382 88.3829 121.443 88.5981C121.505 88.8134 121.611 89.013 121.756 89.1838C122.397 89.6873 123.099 90.1068 123.846 90.4319C125.976 91.5315 126.263 92.0763 124.688 92.0763C124.322 92.0763 123.747 92.5617 123.004 93.5325C121.529 95.3115 119.868 96.9287 118.051 98.3568C116.07 99.9715 114.891 100.645 114.544 100.338C114.198 100.031 114.485 99.7238 115.02 99.07C116.297 97.4576 117.399 95.7143 118.309 93.8693C119.319 91.8881 119.696 90.7191 119.438 90.3625C119.319 90.1446 118.893 90.0357 118.17 90.0357C117.837 90.0682 117.5 90.0345 117.179 89.9366C117.08 89.7517 117.034 85.3765 117.041 76.8111C117.047 68.2456 117.014 63.4774 116.942 62.5067C116.862 60.7836 116.656 59.0687 116.328 57.3754V57.2367C116.328 57.0782 117.08 57.296 118.586 57.8904C119.572 58.3273 120.588 58.6916 121.627 58.9802C122.017 59.0396 123.107 59.0693 124.896 59.0693H127.868C128.433 58.6731 128.94 58.1996 129.374 57.6626C129.65 57.314 129.948 56.9832 130.265 56.672C130.995 57.1637 131.696 57.6962 132.365 58.2668C133.061 58.7889 133.723 59.3548 134.347 59.9608C134.347 60.1524 134.109 60.3405 133.633 60.5254C133.432 60.6048 133.25 60.7263 133.1 60.8818C132.95 61.0373 132.834 61.2232 132.762 61.4269C132.617 62.2973 132.564 63.1805 132.603 64.062C132.518 65.0404 132.605 66.026 132.861 66.9743C133.029 67.2616 133.663 67.4597 134.763 67.5885C137.136 67.8843 139.524 68.0496 141.915 68.0838C144.55 68.0838 145.996 68.0838 146.244 67.8262C146.491 67.5687 146.7 66.2809 146.67 64.1313C146.626 61.838 146.42 59.5506 146.056 57.2861C145.937 56.6224 145.917 56.2956 146.056 56.1965C146.194 56.0974 147.165 56.2757 149.206 56.5333C151.246 56.7908 152.326 56.9395 152.455 56.9989C152.584 57.0584 152.574 57.1772 152.455 57.4248C152.267 57.831 152.039 58.039 151.791 58.039C151.544 58.039 151.177 59.4259 150.969 62.1996C150.761 64.9733 150.82 66.6673 151.137 67.2616C151.633 68.1334 152.455 67.6974 153.584 65.944C154.05 65.1912 154.367 64.8049 154.575 64.7851C154.783 64.7653 155.139 65.0922 155.793 65.7757C156.447 66.4592 156.645 66.6672 156.784 66.8554C157.943 68.0442 158.409 68.7674 158.191 69.0249C157.973 69.2825 156.923 69.3022 154.852 69.3022C153.926 69.2701 152.999 69.3099 152.078 69.4211C151.741 69.4941 151.439 69.6835 151.227 69.956C151.035 70.0551 150.943 74.5128 150.949 83.3292C150.956 92.1456 150.877 96.7685 150.711 97.1977C150.203 98.8884 148.714 99.9549 146.244 100.397C145.332 100.556 144.857 100.566 144.827 100.397C144.798 100.229 144.768 100.061 144.639 99.5554ZM128.314 75.2954C128.395 74.3501 128.425 73.401 128.403 72.4524V71.9373C128.484 71.0416 128.355 70.1393 128.027 69.3022C127.779 69.0446 126.887 68.9258 125.352 68.9258H124.361C122.826 68.9258 121.934 69.0446 121.677 69.3022C121.314 70.0951 121.17 70.9709 121.261 71.8382V73.1062C121.261 74.711 121.33 75.6619 121.588 75.9789C122.418 76.3313 123.326 76.461 124.223 76.3553H124.827C125.853 76.4471 126.888 76.3668 127.888 76.1176C128.014 76.0193 128.117 75.895 128.191 75.7531C128.264 75.6112 128.306 75.4551 128.314 75.2954ZM128.403 80.6843C128.403 79.2083 128.284 78.3465 128.027 78.0988C127.769 77.8512 126.897 77.7224 125.392 77.7224H124.173C123.302 77.6159 122.419 77.7352 121.607 78.0691C121.257 78.8619 121.12 79.733 121.211 80.5952V81.1994C121.211 83.4976 121.35 84.7458 121.627 84.9638C121.797 85.1331 122.022 85.235 122.261 85.251C122.525 85.251 123.397 85.251 124.876 85.251H127.749C128.03 84.9832 128.227 84.6388 128.314 84.2604C128.398 83.2489 128.427 82.2338 128.403 81.2192V80.6843ZM128.264 66.8951C128.353 65.9568 128.386 65.0141 128.363 64.0719C128.363 62.0907 128.235 61.0207 127.987 60.7533C127.739 60.4858 126.669 60.3571 124.777 60.3571C122.885 60.3571 121.806 60.4858 121.607 60.7334C121.409 60.9811 121.251 62.0807 121.251 64.0223C121.175 65.1324 121.286 66.2473 121.578 67.321C122.254 67.6385 123.003 67.7686 123.747 67.6974C125.066 67.8095 126.391 67.8095 127.71 67.6974C127.863 67.6229 127.995 67.5098 128.093 67.3692C128.19 67.2286 128.249 67.0653 128.264 66.8951ZM129.255 97.4355C129.032 96.1644 128.659 94.9242 128.145 93.7405C127.635 92.4787 126.994 91.2736 126.234 90.1446C125.798 89.5205 125.768 89.154 126.144 89.154C126.739 89.0946 127.818 89.5503 129.394 90.5211C132.035 92.2183 133.356 94.1004 133.356 96.1675C133.372 96.561 133.304 96.9535 133.158 97.3189C133.011 97.6843 132.788 98.0144 132.504 98.2874C132.252 98.5455 131.934 98.7299 131.585 98.8207C131.236 98.9114 130.869 98.9052 130.523 98.8025C130.207 98.7255 129.921 98.5546 129.704 98.3124C129.486 98.0702 129.347 97.7681 129.304 97.4454L129.255 97.4355Z" fill="#F0E9D7"/>
</svg>
