<svg width="131" height="131" viewBox="0 0 131 131" fill="none" xmlns="http://www.w3.org/2000/svg">
<path d="M65.0142 130.028C100.921 130.028 130.028 100.921 130.028 65.0142C130.028 29.1078 100.921 0 65.0142 0C29.1078 0 0 29.1078 0 65.0142C0 100.921 29.1078 130.028 65.0142 130.028Z" fill="#D95F3A"/>
<path d="M100.06 47.4771C103.424 43.5647 105.664 38.6742 103.913 35.114C102.935 33.0991 100.813 31.7199 98.1915 30.8983C99.864 28.277 101.243 24.5602 99.688 22.9659C98.4262 21.6553 95.4919 22.0759 92.9391 23.0638C93.4281 18.8775 92.8022 14.8477 90.396 12.7253C86.9922 9.74205 80.9084 11.2972 75.9397 14.1826C75.3431 10.8375 73.9835 7.79565 71.7241 7.17945C68.8778 6.41653 65.3273 9.6149 62.9212 13.0969C59.7033 9.27257 55.4387 6.37738 51.7415 6.84687C47.7215 7.35548 45.2763 11.7374 44.1613 16.579C39.8185 14.1533 34.6835 12.8132 31.7883 14.701C28.4139 16.9017 28.9518 22.8975 30.6635 28.0032C26.2523 28.3748 22.0269 29.8909 20.7358 32.8252C19.3273 36.0333 21.7139 40.2 25.0394 43.5256C20.2468 45.9708 15.6203 49.9811 16.2365 53.8837C16.7158 56.7495 19.9533 58.9991 23.7679 60.4076C21.6161 62.7746 20.2468 65.5622 20.5891 68.2324C20.9999 71.5775 24.0124 74.0325 27.6509 75.4703C26.8494 77.4891 26.8042 79.7295 27.5238 81.779C28.8051 84.8698 32.2969 86.4544 36.1506 86.8847C36.2289 90.8949 37.696 94.6312 41.1194 96.3233C46.0881 98.7784 53.6195 96.2158 57.796 91.8632C59.4591 94.6448 61.9964 96.7976 65.0118 97.9852C68.0273 99.1729 71.3511 99.3287 74.4644 98.4283C77.5777 97.5279 80.3053 95.6221 82.2213 93.0082C84.1373 90.3944 85.1339 87.2197 85.0556 83.9797C90.2591 85.4664 96.4309 84.7622 99.4043 80.8498C102.378 76.9374 101.361 70.9417 98.4849 66.374C103.864 64.7405 109.899 60.7988 109.596 56.2409C109.391 52.4361 104.803 49.1594 100.06 47.4771Z" fill="#BE9360" stroke="#BE9360" stroke-width="2" stroke-miterlimit="10"/>
<path d="M91.6964 123.299C86.4929 128.728 51.0955 127.114 40.3266 122.839C40.2483 98.387 45.3149 82.8352 45.3149 82.8352C49.7946 74.5409 72.1637 71.8316 78.404 80.1356C78.404 80.165 89.8673 107.65 91.6964 123.299Z" fill="#BA3F2F" stroke="#BE9360" stroke-width="2" stroke-miterlimit="10"/>
<path d="M43.1631 87.5693L71.0096 90.484L65.9235 84.5861L43.8478 83.0896L43.1631 87.5693Z" fill="#BA3F2F" stroke="#BE9360" stroke-width="2" stroke-miterlimit="10"/>
<path d="M71.001 90.4546L80.782 84.8306L80.4005 81.241L74.0233 83.3145L71.001 90.4546Z" fill="#BA3F2F" stroke="#BE9360" stroke-width="2" stroke-miterlimit="10"/>
<path d="M71.001 90.4546C71.001 90.4546 79.3246 114.907 71.5585 129.676L71.001 90.4546Z" fill="#BE9360"/>
<path d="M93.2332 124.277C82.3665 132.63 46.3431 131.212 39.8681 124.571C38.7726 123.788 39.1834 121.245 39.8681 120.961C57.9532 127.632 76.4686 130.234 92.6855 120.903C93.2723 120.854 93.8885 123.113 93.2332 124.277Z" fill="#BE9360"/>
<path d="M77.9155 28.717C78.1858 28.2798 78.4899 27.8645 78.8252 27.4749C81.9844 23.8559 87.1977 23.2495 90.4743 26.1153C93.751 28.9811 93.839 34.2238 90.6797 37.8525C90.335 38.235 89.9623 38.5914 89.5647 38.9186L77.9155 28.717Z" fill="#FCE6D4" stroke="#BE9360" stroke-width="2" stroke-miterlimit="10"/>
<path d="M91.2081 98.4262C90.031 94.3626 89.1966 90.2074 88.7139 86.0043C88.6906 85.0093 88.4146 84.0366 87.9119 83.1776C83.6474 75.9788 76.6051 82.0626 79.5198 90.6014C80.8109 94.3866 82.2292 97.986 83.6181 101.233C86.1513 104.265 91.4331 102.759 91.2081 98.4262Z" fill="#F0E9D7" stroke="#BE9360" stroke-width="2" stroke-miterlimit="10"/>
<path d="M97.419 57.0916C98.5536 74.4137 86.122 82.7863 71.9004 85.4565C53.9816 88.7527 35.7107 82.7667 31.7983 63.459C27.6708 43.4569 42.5574 26.4771 60.2415 23.5721C76.7029 20.8139 96.079 36.708 97.419 57.0916Z" fill="#FCE6D4" stroke="#BE9360" stroke-width="2" stroke-miterlimit="10"/>
<path d="M36.2682 43.8872C35.7539 43.6007 35.2633 43.2736 34.801 42.9091C32.7569 41.223 31.4663 38.7939 31.2132 36.1561C30.9601 33.5184 31.7651 30.8882 33.4512 28.844C35.1374 26.7999 37.5666 25.5093 40.2043 25.2562C42.842 25.003 45.4722 25.8081 47.5163 27.4943C47.9724 27.8706 48.3947 28.2863 48.7781 28.7365" fill="#FCE6D4"/>
<path d="M36.2682 43.8872C35.7539 43.6007 35.2633 43.2736 34.801 42.9091C32.7569 41.223 31.4663 38.7939 31.2132 36.1561C30.9601 33.5184 31.7651 30.8882 33.4512 28.844C35.1374 26.7999 37.5666 25.5093 40.2043 25.2562C42.842 25.003 45.4722 25.8081 47.5163 27.4943C47.9724 27.8706 48.3947 28.2863 48.7781 28.7365" stroke="#BE9360" stroke-width="2" stroke-miterlimit="10"/>
<path d="M85.3389 53.097C86.7252 52.8398 87.5359 50.9435 87.1496 48.8615C86.7634 46.7795 85.3264 45.3001 83.9402 45.5573C82.5539 45.8145 81.7433 47.7108 82.1296 49.7928C82.5158 51.8748 83.9527 53.3541 85.3389 53.097Z" fill="black"/>
<path d="M58.1536 53.2475C59.6039 52.8791 60.3323 50.8191 59.7804 48.6463C59.2286 46.4735 57.6056 45.0107 56.1553 45.379C54.705 45.7473 53.9766 47.8073 54.5285 49.9801C55.0803 52.1529 56.7033 53.6158 58.1536 53.2475Z" fill="black"/>
<path d="M82.0628 51.8979C82.0628 51.8979 70.0321 48.054 61.0825 53.1401C61.0825 53.1401 61.7281 60.1433 64.7407 62.7353C64.7407 62.7353 75.3139 62.8037 81.3683 61.6398C81.3977 61.6202 83.5788 60.2215 82.0628 51.8979Z" fill="#BE9360" stroke="#BE9360" stroke-width="2" stroke-miterlimit="10"/>
<path d="M51.9766 62.3441C55.2664 62.3441 57.9333 59.6773 57.9333 56.3876C57.9333 53.0978 55.2664 50.4309 51.9766 50.4309C48.6869 50.4309 46.02 53.0978 46.02 56.3876C46.02 59.6773 48.6869 62.3441 51.9766 62.3441Z" fill="#BA3F2F" stroke="#BE9360" stroke-width="2" stroke-miterlimit="10"/>
<path d="M92.0397 60.3095C95.3294 60.3095 97.9963 57.6426 97.9963 54.3529C97.9963 51.0631 95.3294 48.3962 92.0397 48.3962C88.7499 48.3962 86.083 51.0631 86.083 54.3529C86.083 57.6426 88.7499 60.3095 92.0397 60.3095Z" fill="#BA3F2F" stroke="#BE9360" stroke-width="2" stroke-miterlimit="10"/>
<path d="M58.9993 40.8942C58.9993 40.8942 54.5685 37.8915 50.7539 42.8504" stroke="#BE9360" stroke-width="2" stroke-miterlimit="10"/>
<path d="M85.74 40.8944C85.74 40.8944 83.6664 37.5884 79.6758 39.7696" stroke="#BE9360" stroke-width="2" stroke-miterlimit="10"/>
<path d="M86.7181 89.3298C72.056 92.8494 56.8877 93.7533 41.9114 92C39.4661 88.3419 37.7447 81.3093 38.9771 77.5436C57.424 81.9255 71.6554 83.8328 89.7111 77.26C91.3836 80.9377 89.7306 88.8212 86.7181 89.3298Z" fill="#BA3F2F" stroke="#BE9360" stroke-width="2" stroke-miterlimit="10"/>
<path d="M76.791 23.5331C76.0992 22.6197 75.0887 22.0003 73.9607 21.7984C72.8328 21.5965 71.6702 21.8268 70.7045 22.4435C69.7387 23.0602 69.0407 24.018 68.7494 25.1262C68.4581 26.2344 68.5949 27.4117 69.1325 28.4236C70.4921 30.5363 75.0011 33.7836 77.0747 32.4241C79.1482 31.0645 78.1603 25.6262 76.791 23.5331Z" fill="#BE9360" stroke="#BE9360" stroke-width="2" stroke-miterlimit="10"/>
<path d="M69.3178 24.1982C68.9649 22.8487 68.1026 21.6886 66.9121 20.9617C65.7216 20.2349 64.2957 19.9979 62.934 20.3006C61.5724 20.6033 60.3812 21.4222 59.6109 22.585C58.8405 23.7478 58.551 25.164 58.8032 26.5359C59.4585 29.4702 63.0775 34.8693 65.9726 34.2237C68.8678 33.5782 69.9731 27.1032 69.3178 24.1982Z" fill="#BE9360" stroke="#BE9360" stroke-width="2" stroke-miterlimit="10"/>
<path d="M59.41 27.1227C59.4055 26.4612 59.2707 25.8071 59.0134 25.1977C58.7561 24.5883 58.3813 24.0355 57.9104 23.5709C57.4395 23.1063 56.8816 22.7391 56.2688 22.4901C55.6559 22.2411 55 22.1152 54.3385 22.1197C53.677 22.1242 53.0229 22.259 52.4134 22.5163C51.804 22.7736 51.2513 23.1484 50.7867 23.6193C50.3221 24.0902 49.9549 24.6481 49.7059 25.261C49.4569 25.8738 49.3311 26.5297 49.3356 27.1912C49.3356 29.969 51.5852 35.642 54.3727 35.6224C57.1603 35.6028 59.4198 29.9005 59.41 27.1227Z" fill="#BE9360" stroke="#BE9360" stroke-width="2" stroke-miterlimit="10"/>
<path d="M31.5047 50.3035C30.7795 50.625 30.2056 51.213 29.9019 51.9459C29.5982 52.6788 29.588 53.5004 29.8733 54.2406C30.1586 54.9808 30.7175 55.583 31.4345 55.9225C32.1515 56.262 32.9716 56.3129 33.725 56.0645C35.3193 55.4483 38.0776 52.9346 37.4614 51.3403C36.8452 49.746 33.0892 49.6971 31.5047 50.3035Z" fill="#BE9360" stroke="#BE9360" stroke-width="2" stroke-miterlimit="10"/>
<path d="M30.9668 55.3507C30.0323 55.4119 29.157 55.83 28.5223 56.5186C27.8876 57.2072 27.542 58.1136 27.5571 59.05C27.5722 59.9864 27.9468 60.8811 28.6033 61.5489C29.2599 62.2168 30.1482 62.6065 31.0842 62.6375C33.099 62.6375 37.1875 60.9552 37.1582 58.9403C37.1288 56.9255 32.923 55.3214 30.9668 55.3507Z" fill="#BE9360" stroke="#BE9360" stroke-width="2" stroke-miterlimit="10"/>
<path d="M31.5142 62.3244C30.6284 62.148 29.7087 62.3307 28.9575 62.8324C28.2064 63.3341 27.6854 64.1136 27.509 64.9995C27.3326 65.8854 27.5153 66.805 28.0169 67.5562C28.5186 68.3073 29.2982 68.8284 30.184 69.0048C32.0229 69.3765 36.0526 68.6723 36.4634 66.8237C36.8742 64.9751 33.3628 62.6569 31.5142 62.3244Z" fill="#BE9360" stroke="#BE9360" stroke-width="2" stroke-miterlimit="10"/>
<path d="M77.2116 90.6796C73.8372 92.7825 68.3108 95.1104 62.6085 97.1448C59.6809 94.1275 56.9928 90.8867 54.5686 87.4518C53.8675 86.2859 52.8856 85.3142 51.7126 84.6252C41.8142 78.9326 37.5203 90.8752 46.7144 99.0814C50.7833 102.71 54.8913 106.036 58.7157 108.97C59.7135 109.355 60.7956 109.467 61.851 109.295C62.9064 109.123 63.8971 108.673 64.7213 107.992C71.9592 104.295 77.818 100.852 81.1631 98.8467C83.2367 97.585 85.7406 89.858 77.2116 90.6796Z" fill="#F0E9D7" stroke="#BE9360" stroke-width="2" stroke-miterlimit="10"/>
<path d="M80.6931 91.3546C82.3225 88.8269 84.4288 86.6409 86.8942 84.9187C88.6935 83.7442 90.6406 82.8134 92.6845 82.1507C97.2327 80.302 103.444 82.0529 104.793 84.5079C106.143 86.9629 99.7073 91.2666 97.2523 92.5674C94.7973 93.8683 85.9161 97.9274 85.9161 97.9274C82.3558 97.3503 80.2334 95.3746 80.6931 91.3546Z" fill="#BE9360"/>
<path d="M76.8001 91.5502C78.844 89.345 81.2995 87.5607 84.0282 86.2978C86.0035 85.4548 88.0823 84.8792 90.2098 84.5861C95.0123 83.608 100.871 86.3761 101.722 89.0268C102.573 91.6774 95.5307 94.7877 92.9192 95.6387C90.3077 96.4896 80.82 98.9349 80.82 98.9349C77.3869 97.7416 75.6459 95.4333 76.8001 91.5502Z" fill="#BE9360"/>
<path d="M77.5734 90.1611C77.013 90.2242 76.4707 90.3986 75.9786 90.6741C75.4865 90.9495 75.0543 91.3205 74.7075 91.7652C74.463 95.2277 75.2357 98.9151 78.3754 101.008C78.9361 100.942 79.4782 100.766 79.9702 100.489C80.4621 100.212 80.8942 99.8397 81.2413 99.3944C78.3852 97.624 77.8473 93.8192 77.5734 90.1611Z" fill="#BA3F2F" stroke="#BE9360" stroke-width="2" stroke-miterlimit="10"/>
<path d="M79.7056 91.8825L104.07 95.6972L121.324 87.8039L96.9592 83.9795L79.7056 91.8825Z" fill="#BA3F2F" stroke="#BE9360" stroke-width="2" stroke-miterlimit="10"/>
<path d="M89.8089 86.816L97.2914 86.0629C98.5336 85.9357 100.284 84.8402 100.226 83.1286C100.167 81.4169 98.651 80.6931 96.8806 80.5171C94.6778 80.3757 92.4685 80.6648 90.3762 81.368C84.7913 83.3731 83.7056 86.7769 82.7471 88.2147L89.8089 86.816Z" fill="#BE9360"/>
<path d="M84.557 89.0657L92.0395 88.3126C93.2915 88.1854 95.0423 87.09 94.9249 85.3783C94.8075 83.6666 93.3501 82.933 91.5896 82.757C89.3827 82.614 87.1694 82.9064 85.0754 83.6177C79.5003 85.5739 78.4146 89.0168 77.4463 90.4644" fill="#BE9360"/>
<path d="M64.0263 65.7381C60.4073 66.1293 58.9011 64.8774 58.7837 62.4419L64.0263 65.7381Z" fill="#FCE6D4"/>
<path d="M64.0263 65.7381C60.4073 66.1293 58.9011 64.8774 58.7837 62.4419" stroke="#BE9360" stroke-width="2" stroke-miterlimit="10"/>
</svg>
