<svg width="273" height="308" viewBox="0 0 273 308" fill="none" xmlns="http://www.w3.org/2000/svg">
<path d="M271.561 1H1.56055V306.999H271.561V1Z" fill="#BA3F2F" stroke="#BE9360" stroke-width="2" stroke-miterlimit="10"/>
<path d="M261.377 13.4519H11.7539V292.754H261.377V13.4519Z" stroke="#BE9360" stroke-width="2" stroke-miterlimit="10"/>
<path d="M136.561 63.854C61.9975 63.854 1.56055 40.6045 1.56055 1H271.561C271.561 43.3088 211.124 63.854 136.561 63.854Z" fill="#78352B" stroke="#BE9360" stroke-width="2" stroke-miterlimit="10"/>
<path d="M136.561 124.004C161.317 124.004 181.386 103.935 181.386 79.179C181.386 54.4228 161.317 34.354 136.561 34.354C111.805 34.354 91.7358 54.4228 91.7358 79.179C91.7358 103.935 111.805 124.004 136.561 124.004Z" fill="#F1C74F" stroke="#BE9360" stroke-width="2" stroke-miterlimit="10"/>
<path d="M136.561 116.941C157.416 116.941 174.323 100.034 174.323 79.1788C174.323 58.3235 157.416 41.4167 136.561 41.4167C115.705 41.4167 98.7988 58.3235 98.7988 79.1788C98.7988 100.034 115.705 116.941 136.561 116.941Z" stroke="#BE9360" stroke-width="2" stroke-miterlimit="10"/>
<path d="M113.925 73.6709C115.409 71.598 116.699 69.3929 117.779 67.0834C118.982 64.5844 119.976 61.9901 120.75 59.327C120.88 58.7633 121.052 58.2103 121.266 57.6726C123.082 57.9306 124.877 58.3247 126.635 58.8515C127.13 59.01 127.17 59.2278 126.724 59.5151C126.278 59.8024 126.635 60.3869 128.14 61.0209C129.849 61.71 131.395 62.7494 132.677 64.072C133.856 65.3301 134.282 66.3801 133.975 67.232C133.862 67.5872 133.678 67.916 133.434 68.1985C133.191 68.4811 132.893 68.7116 132.558 68.8764C132.267 69.0322 131.941 69.1096 131.611 69.1009C131.281 69.0922 130.959 68.9977 130.676 68.8269C130.226 68.3801 129.886 67.8338 129.686 67.232C129.019 65.6978 128.156 64.2562 127.12 62.9427C126.129 61.7243 125.416 61.219 124.98 61.437C124.298 62.1115 123.753 62.9122 123.376 63.7946C122.406 65.5493 121.271 67.2078 119.988 68.7477C119.106 69.8472 118.73 70.5506 118.839 70.8477C118.948 71.1449 119.641 71.3727 120.929 71.5312C122.116 71.7407 123.326 71.7808 124.525 71.6501C124.98 71.5015 125.614 70.8675 126.437 69.7383C126.654 69.4312 126.823 69.1835 126.952 69.0151C127.038 68.8832 127.141 68.7632 127.259 68.6584C127.316 68.6113 127.38 68.5714 127.447 68.5395C127.447 68.5395 127.536 68.5395 127.566 68.5395C128.358 69.1542 129.112 69.8158 129.824 70.5208C130.547 71.0977 131.211 71.7449 131.806 72.4525C131.806 72.5119 131.647 72.7001 131.33 73.0171H126.437C124.142 72.9355 121.844 73.0615 119.572 73.3935C119.314 73.4926 119.066 73.2748 118.819 72.7398C118.571 72.2049 118.175 71.7492 117.828 71.7492C117.481 71.7492 116.956 72.0959 116.204 72.7398C114.638 74.1465 113.727 74.721 113.479 74.5228C113.232 74.3247 113.549 74.2158 113.925 73.6709ZM118.957 101.319C118.95 100.261 118.996 99.2024 119.096 98.1488C119.255 95.6327 119.344 92.1161 119.383 87.5791C119.423 83.0421 119.383 80.6448 119.195 80.4566C118.848 79.9514 117.808 79.8226 116.085 80.0702C115.858 80.1563 115.608 80.1563 115.381 80.0702C115.087 79.716 114.85 79.3184 114.678 78.8915C114.391 78.3268 114.272 78.0098 114.321 77.9009C114.371 77.7919 114.747 77.9008 115.471 77.9999C118 78.3231 120.548 78.4786 123.098 78.4654C124.559 78.5342 126.022 78.4945 127.477 78.3466C128.156 78.0663 128.73 77.5815 129.121 76.9597C129.428 76.5238 129.696 76.3456 129.894 76.4149C130.629 76.8587 131.331 77.3553 131.994 77.9009C132.696 78.3922 133.34 78.9603 133.916 79.5948C134.015 79.783 133.856 79.991 133.45 80.2089C133.412 80.2426 133.362 80.2604 133.311 80.2585C132.776 80.5359 132.459 80.7835 132.321 81.0114C132.058 83.0374 131.962 85.0816 132.033 87.1233C132.033 90.2339 131.994 92.0765 131.915 92.651C131.873 93.2129 131.689 93.7549 131.38 94.226C130.838 95.008 130.02 95.5564 129.091 95.7615C127.982 96.0884 127.427 95.9893 127.427 95.4544C127.431 94.6301 127.167 93.8269 126.674 93.1661C126.441 92.8439 126.146 92.5718 125.805 92.3659C125.465 92.16 125.087 92.0245 124.693 91.9674C124.29 91.8486 124.132 91.6604 124.218 91.4028C124.218 91.3137 124.743 91.284 125.684 91.3137H126.06C127.004 91.3731 127.599 91.2641 127.843 90.9867C128.061 90.64 128.19 89.164 128.22 86.5588V84.3497C128.22 81.9326 128.111 80.5656 127.893 80.2585C127.675 79.9514 127.11 79.8424 126.1 79.8821H125.664C125.032 79.8662 124.4 79.926 123.782 80.0603C123.564 80.1594 123.405 80.4269 123.316 80.8628C123.227 81.2986 123.197 83.6167 123.237 87.7079C123.276 91.7991 123.356 95.0779 123.455 97.5247C123.538 98.6288 123.562 99.7367 123.524 100.843C123.47 101.012 123.381 101.168 123.263 101.301C123.146 101.434 123.002 101.541 122.841 101.616C122.247 101.921 121.602 102.112 120.939 102.181C120.412 102.303 119.86 102.255 119.364 102.042C119.244 101.964 119.144 101.859 119.074 101.735C119.003 101.611 118.963 101.471 118.957 101.329V101.319ZM130.389 100.972C132.164 99.9385 133.847 98.7553 135.421 97.4356C136.739 96.4084 137.927 95.2242 138.958 93.9091C139.334 93.285 139.691 92.9185 140.038 92.9185C140.097 92.9185 140.83 93.3543 142.227 94.236C143.624 95.1176 144.396 95.6228 144.555 95.7417C144.608 95.7905 144.64 95.8579 144.644 95.9299C144.713 96.0884 144.475 96.1676 143.941 96.1676C143.226 96.325 142.551 96.6286 141.959 97.0592C139.586 98.5318 137.074 99.7693 134.46 100.754C131.337 101.996 129.603 102.441 129.26 102.091C129.091 101.873 129.448 101.477 130.389 100.982V100.972ZM135.094 93.394C134.936 93.11 134.952 91.2278 135.144 87.7474C135.332 84.6666 135.402 81.1005 135.352 77.0192C135.385 74.2651 135.236 71.5119 134.906 68.7774C134.817 68.3118 134.748 67.8958 134.698 67.5391C134.658 67.2734 134.635 67.0053 134.629 66.7367C134.629 66.5584 134.629 66.4791 134.718 66.4791C134.807 66.4791 135.55 66.7862 137.026 67.4697C139.156 68.3415 140.493 68.708 140.989 68.5495C141.484 68.391 141.86 67.5589 141.979 65.9145C142.072 65.2584 142.095 64.5943 142.048 63.9333C141.936 63.6098 141.768 63.3082 141.553 63.0417H139.017C137.776 63.0199 136.535 63.0827 135.302 63.2299L134.173 63.3191C133.232 61.8828 132.856 61.11 133.044 61.0209L134.034 61.11C134.688 61.209 135.352 61.2883 136.016 61.3676L137.115 61.4864C137.779 61.5855 139.938 61.6351 143.614 61.6549C147.289 61.6747 149.22 61.6549 149.448 61.5856C150.266 61.1484 150.951 60.498 151.43 59.7034C152.093 58.8515 152.489 58.4255 152.628 58.4056C153.202 58.6804 153.722 59.0562 154.164 59.5151C155.352 60.5057 155.996 61.1101 156.085 61.2091C157.076 62.0214 157.334 62.5265 156.987 62.7148C155.37 62.9792 153.73 63.0722 152.093 62.9922H147.576C146.966 63.5658 146.412 64.196 145.922 64.8743C144.604 66.6971 143.941 67.7372 144.04 68.0047C144.139 68.2722 145.03 68.4207 146.774 68.4504C147.66 68.4849 148.548 68.4451 149.429 68.3316C149.955 68.089 150.416 67.726 150.776 67.2717C151.311 66.6773 151.657 66.3998 151.836 66.4295C152.509 66.8193 153.132 67.2919 153.688 67.8362C154.393 68.3826 155.056 68.9821 155.669 69.6293C155.739 69.7482 155.6 69.8967 155.253 70.0453C154.971 70.1773 154.73 70.3834 154.555 70.6416C154.381 70.8997 154.28 71.2003 154.263 71.5114C154.193 71.9769 154.193 74.4238 154.263 78.8518C154.332 83.2798 154.382 86.3904 154.481 88.2131L154.669 91.6009L154.431 91.8386C153.937 92.2863 153.337 92.6001 152.688 92.75C151.994 92.994 151.263 93.1147 150.528 93.1067C150.122 93.1067 149.914 92.8689 149.914 92.4034C149.914 91.7793 149.706 91.4127 149.28 91.3235C147.769 91.1764 146.25 91.1269 144.733 91.175C143.179 91.1108 141.621 91.1737 140.077 91.3632C139.859 91.4325 139.641 91.7099 139.423 92.2151C139.041 92.7713 138.471 93.1719 137.819 93.3444C137.106 93.6449 136.324 93.741 135.56 93.6218C135.342 93.6218 135.154 93.5327 135.094 93.4039V93.394ZM150.181 87.0144C150.181 85.4294 149.983 84.4983 149.537 84.2209C149.32 84.0624 147.784 83.9832 144.931 83.9832C143.375 83.8862 141.813 83.966 140.275 84.2209C139.74 84.4686 139.463 85.3898 139.453 86.9946C139.443 88.5993 139.691 89.5207 140.226 89.7683C141.753 89.9652 143.295 90.0216 144.832 89.9368C146.374 90.0034 147.919 89.9304 149.448 89.7187C149.914 89.5206 150.162 88.6093 150.181 87.0243V87.0144ZM139.532 80.6052V80.932C139.532 81.7443 139.73 82.2496 140.137 82.4378C140.543 82.626 142.504 82.8341 145.833 82.8638H149.359L149.736 82.5368L150.072 82.2001V80.0406V79.3372C150.072 78.2079 149.983 77.4946 149.696 77.2173C149.409 76.9399 148.161 76.8904 146.031 76.8904H140.384C140.039 77.0883 139.765 77.3899 139.602 77.7522C139.501 78.5105 139.464 79.2761 139.493 80.0406L139.532 80.6052ZM150.023 74.9092C150.102 74.2055 150.132 73.4971 150.112 72.7893V72.1751C150.112 71.0161 149.954 70.3425 149.627 70.1939C148.429 69.9179 147.197 69.8244 145.971 69.9165H143.762C142.534 69.8255 141.298 69.919 140.097 70.1939C139.75 70.3821 139.572 71.0557 139.572 72.1751V73.2648C139.572 74.3643 139.701 75.0181 139.948 75.246C140.196 75.4738 141.444 75.6423 143.574 75.672H144.426H146.308H148.002H148.656C148.935 75.6963 149.215 75.634 149.458 75.4936C149.592 75.4495 149.712 75.3731 149.809 75.2711C149.906 75.1691 149.976 75.0448 150.013 74.9092H150.023ZM153.401 101.21C151.524 98.6445 149.254 96.3913 146.675 94.5332C146.374 94.3392 146.098 94.1097 145.852 93.8496C145.773 93.7406 145.793 93.6218 145.922 93.493C146.839 93.461 147.756 93.5577 148.646 93.7803C149.637 93.9388 150.211 94.0477 150.409 94.1072C150.607 94.1666 151.142 94.3945 151.984 94.7709C155.471 96.237 157.165 98.0861 157.066 100.318C157.076 100.66 156.997 100.998 156.837 101.3C156.677 101.602 156.442 101.858 156.155 102.042C155.86 102.226 155.521 102.33 155.173 102.342C154.826 102.354 154.481 102.275 154.174 102.111C153.859 101.865 153.596 101.558 153.401 101.21Z" fill="#420104"/>
</svg>
