<svg width="272" height="308" viewBox="0 0 272 308" fill="none" xmlns="http://www.w3.org/2000/svg">
<path d="M271 1H1V306.999H271V1Z" fill="#939393" stroke="#F0E9D7" stroke-width="2" stroke-miterlimit="10"/>
<path d="M260.806 14.3533H11.1831V293.655H260.806V14.3533Z" fill="#A3A3A3" stroke="#F0E9D7" stroke-width="2" stroke-miterlimit="10"/>
<path d="M136 63.854C61.437 63.854 1 40.6045 1 1H271C271 43.3089 210.553 63.854 136 63.854Z" fill="#848484" stroke="#F0E9D7" stroke-width="2" stroke-miterlimit="10"/>
<path d="M136 124.004C160.756 124.004 180.825 103.935 180.825 79.179C180.825 54.4228 160.756 34.354 136 34.354C111.244 34.354 91.1748 54.4228 91.1748 79.179C91.1748 103.935 111.244 124.004 136 124.004Z" fill="#7C7C7C" stroke="#F0E9D7" stroke-width="2" stroke-miterlimit="10"/>
<path d="M136 116.941C156.855 116.941 173.762 100.034 173.762 79.1788C173.762 58.3235 156.855 41.4167 136 41.4167C115.144 41.4167 98.2378 58.3235 98.2378 79.1788C98.2378 100.034 115.144 116.941 136 116.941Z" stroke="#F0E9D7" stroke-width="2" stroke-miterlimit="10"/>
<path d="M114.543 100.021C114.543 99.9022 115.028 99.5853 115.999 99.0801C119.109 97.6113 121.85 95.4655 124.023 92.7996C125.932 90.1751 127.14 87.1062 127.53 83.8842C127.807 81.8435 127.698 80.6943 127.193 80.4467C125.825 80.3471 124.453 80.3174 123.082 80.3575C120.497 80.3575 118.773 80.3575 117.931 80.4467C117.37 80.5343 116.804 80.5807 116.237 80.5854H115.811L115.296 79.5948C115.102 79.2825 114.943 78.9504 114.82 78.6041C114.761 78.4457 114.82 78.3863 115.058 78.416C116.489 78.68 117.935 78.8521 119.387 78.9311C120.642 79.0302 125.925 79.0698 135.237 79.05C144.568 79.05 149.343 78.9608 149.571 78.8419C150.327 78.2312 150.994 77.5176 151.552 76.722C151.958 76.187 152.246 75.9394 152.404 75.9691C152.994 76.3002 153.545 76.6956 154.048 77.148C154.996 77.8353 155.894 78.5902 156.733 79.4066C156.777 79.4447 156.812 79.4918 156.837 79.5448C156.861 79.5978 156.873 79.6554 156.873 79.7136C156.873 79.7719 156.861 79.8294 156.837 79.8824C156.812 79.9354 156.777 79.9826 156.733 80.0208C156.31 80.2338 155.839 80.3359 155.366 80.3179C154.643 80.3179 152.701 80.3972 149.531 80.3972H143.221L142.894 80.625C142.62 81.0083 142.481 81.4716 142.498 81.9425C142.445 82.6029 142.422 84.627 142.429 88.0149V90.1348C142.429 92.7104 142.577 94.2063 142.894 94.6322C143.211 95.0582 144.321 95.2265 146.233 95.1671H150.898C152.364 95.1076 153.345 94.7313 153.811 94.0379C154.529 92.5472 155.036 90.9634 155.316 89.3325C155.339 89.2207 155.372 89.1112 155.415 89.0055C155.534 88.5994 155.673 88.4706 155.832 88.6291C155.962 89.5179 156.025 90.4154 156.02 91.3137C156.089 92.7501 156.149 93.6615 156.208 94.0379C156.262 94.4283 156.464 94.783 156.773 95.0285C157.179 95.3487 157.49 95.7732 157.674 96.2568C157.812 96.7966 157.734 97.3687 157.456 97.8517C156.994 98.378 156.364 98.728 155.673 98.8423C154.484 99.1315 153.27 99.304 152.047 99.3574C150.552 99.4565 148.541 99.496 146.005 99.496C144.048 99.5822 142.087 99.4494 140.16 99.0999C139.726 98.9783 139.33 98.748 139.009 98.4308C138.688 98.1136 138.454 97.7199 138.327 97.287C138.209 96.8841 138.133 94.1072 138.1 88.9561V86.2319C138.1 85.0035 138.1 84.0525 138.1 83.3591C138.1 82.6657 138.04 82.1011 138.03 81.6454C138.043 81.4791 138.023 81.3118 137.97 81.1536C137.917 80.9953 137.833 80.8493 137.723 80.7241C137.564 80.5813 137.369 80.4853 137.159 80.4467C136.83 80.4052 136.497 80.4052 136.168 80.4467H135.326C134.536 80.3689 133.738 80.4636 132.988 80.7241C132.721 80.9123 132.513 81.5859 132.354 82.7053C131.727 87.163 130.38 90.6235 128.312 93.0868C126.242 95.5435 123.003 97.6139 118.614 99.2682C116.197 100.259 114.88 100.546 114.652 100.259C114.593 100.192 114.555 100.109 114.543 100.021ZM114.939 70.8477C114.993 70.3143 115.167 69.8 115.449 69.3436C115.73 68.8872 116.111 68.5005 116.564 68.2127C117.681 67.3552 118.603 66.2693 119.267 65.0274C119.932 63.7856 120.324 62.4163 120.417 61.0109C120.487 60.2977 120.606 59.9015 120.794 59.8421C120.982 59.7827 121.299 60.2977 121.547 61.4864C121.553 61.5803 121.57 61.6733 121.596 61.7638C121.725 62.4275 121.963 62.8238 122.299 62.9427C124.092 63.2151 125.906 63.3244 127.718 63.2696C130.571 63.2696 132.206 63.2696 132.612 63.2696C132.785 63.2648 132.954 63.2147 133.101 63.1243C133.249 63.0339 133.371 62.9064 133.454 62.7544C133.611 61.9314 133.634 61.0885 133.523 60.2581C133.458 58.9627 133.292 57.6743 133.028 56.4046C132.957 56.1909 132.926 55.9658 132.939 55.741C134.079 55.7476 135.218 55.837 136.346 56.0085C137.478 56.0727 138.604 56.2216 139.714 56.4542C139.774 56.5136 139.714 56.6325 139.714 56.8009C139.63 56.9693 139.499 57.1102 139.338 57.207C138.902 57.4107 138.551 57.7614 138.347 58.1977C138.183 58.8916 138.12 59.6056 138.159 60.3176C138.132 60.9569 138.169 61.5972 138.268 62.2294C138.371 62.5593 138.559 62.8564 138.813 63.0912H144.509C147.956 63.0912 149.898 63.0912 150.314 63.0021C151.007 62.7645 151.621 62.3393 152.087 61.7737C152.8 61.0473 153.246 60.7171 153.424 60.7831C154.199 61.3739 154.916 62.0373 155.564 62.7643L157.684 64.8843C157.44 65.0955 157.147 65.242 156.832 65.3103C156.048 65.558 155.328 65.9738 154.722 66.5287C151.612 69.0052 149.838 70.2534 149.402 70.2534C148.967 70.2534 149.105 69.5599 149.64 68.173C149.993 67.3143 150.268 66.4259 150.462 65.5183C150.497 65.3378 150.466 65.1509 150.375 64.9912C150.285 64.8314 150.14 64.7092 149.967 64.6465C149.71 64.5276 145.159 64.4748 136.317 64.488C127.474 64.5012 122.94 64.5705 122.715 64.696C122.339 64.8545 122.091 65.429 121.963 66.4395C121.835 68.2566 121.142 69.9884 119.981 71.3925C118.859 72.6605 117.673 73.1063 116.425 72.7299C115.982 72.6705 115.579 72.4408 115.301 72.0895C115.024 71.7382 114.894 71.293 114.939 70.8477ZM122.676 71.4123C122.428 70.917 122.339 70.6298 122.418 70.5703C122.804 70.5022 123.199 70.5191 123.577 70.6199C123.703 70.6319 123.829 70.6319 123.954 70.6199L125.242 70.7586L126.401 70.9071C127.213 70.9963 129.957 71.0557 134.633 71.0656C139.308 71.0755 141.765 71.0657 142.022 70.9567C142.788 70.4639 143.446 69.8201 143.954 69.0646C144.22 68.6758 144.556 68.3398 144.945 68.074C145.458 68.3152 145.932 68.6326 146.351 69.0151C147.342 69.768 147.907 70.2335 148.184 70.4217C148.461 70.6099 148.659 70.7387 148.659 70.7982C148.659 70.8576 148.719 70.9071 148.848 71.0359C148.902 71.1212 148.965 71.2008 149.036 71.2736C149.343 71.5807 149.442 71.8482 149.313 72.0662C149.185 72.2841 148.551 72.3732 147.5 72.4029C146.45 72.4327 143.102 72.4029 137.456 72.4029C129.65 72.4029 125.195 72.4822 124.092 72.6407L123.439 72.7398L122.874 71.6105L122.676 71.4123Z" fill="#F0E9D7"/>
</svg>
