<svg width="95" height="142" viewBox="0 0 95 142" fill="none" xmlns="http://www.w3.org/2000/svg">
<path d="M93.2397 1.29004H1.23975V141.29H93.2397V1.29004Z" fill="#939393" stroke="#F0E9D7" stroke-width="0.68" stroke-miterlimit="10"/>
<path d="M90.2397 5.29004H4.23975V137.29H90.2397V5.29004Z" fill="#A3A3A3" stroke="#F0E9D7" stroke-width="0.75" stroke-miterlimit="10"/>
<path d="M47.2396 22.51C21.6196 22.51 0.849609 14.51 0.849609 1H93.6396C93.6296 15.47 72.8596 22.51 47.2396 22.51Z" fill="#848484" stroke="#F0E9D7" stroke-width="0.75" stroke-miterlimit="10"/>
<path d="M47.2293 43.0901C55.74 43.0901 62.6393 36.2222 62.6393 27.7502C62.6393 19.2781 55.74 12.4102 47.2293 12.4102C38.7186 12.4102 31.8193 19.2781 31.8193 27.7502C31.8193 36.2222 38.7186 43.0901 47.2293 43.0901Z" fill="#7C7C7C" stroke="#F0E9D7" stroke-width="0.75" stroke-miterlimit="10"/>
<path d="M47.2295 40.6801C54.3981 40.6801 60.2095 34.8911 60.2095 27.7501C60.2095 20.609 54.3981 14.8201 47.2295 14.8201C40.0608 14.8201 34.2495 20.609 34.2495 27.7501C34.2495 34.8911 40.0608 40.6801 47.2295 40.6801Z" stroke="#F0E9D7" stroke-width="0.75" stroke-miterlimit="10"/>
<path d="M50.1595 34.7301C50.1095 34.3918 49.939 34.0829 49.6795 33.8601C49.3143 33.6154 48.8961 33.4612 48.4595 33.4101C48.3395 33.4101 48.3095 33.3301 48.3495 33.2301C48.3709 33.2107 48.3964 33.1962 48.424 33.1876C48.4516 33.1789 48.4808 33.1764 48.5095 33.1801L49.7095 33.2501H50.3695C50.475 33.2515 50.5775 33.2148 50.6583 33.1469C50.739 33.079 50.7927 32.9843 50.8095 32.8801C50.8095 32.6901 50.8695 31.8801 50.8695 30.3201C50.8695 29.7501 50.8695 29.3201 50.8695 29.1401C50.8695 28.1901 50.7995 27.7101 50.6895 27.7101C50.5795 27.7101 50.4595 27.8801 50.1895 28.2401C49.1957 29.5159 47.9999 30.6204 46.6495 31.5101C46.2395 31.7801 45.9995 31.8801 45.9295 31.8301C45.8595 31.7801 45.9295 31.6201 46.2395 31.4001C47.1009 30.5933 47.8509 29.6752 48.4695 28.6701C49.151 27.5919 49.7111 26.4416 50.1395 25.2401C50.2065 25.042 50.2534 24.8376 50.2795 24.6301C50.2471 24.5172 50.1927 24.4119 50.1195 24.3201H48.6995C48.0947 24.3038 47.4896 24.3339 46.8895 24.4101H46.4995C46.4195 24.3101 46.3595 24.2501 46.3095 24.2501C46.0495 24.2501 45.9695 25.6901 46.0795 28.5501L46.1295 30.0001V30.6001L45.9495 30.7101C45.757 30.8559 45.5353 30.9583 45.2995 31.0101C45.1205 31.0669 44.9284 31.0669 44.7495 31.0101C44.681 30.9879 44.6221 30.9432 44.5822 30.8833C44.5423 30.8234 44.5237 30.7519 44.5295 30.6801C44.5409 30.6075 44.5297 30.533 44.4975 30.4669C44.4653 30.4007 44.4137 30.346 44.3495 30.3101C44.0022 30.2566 43.6503 30.2399 43.2995 30.2601H42.2995C42.1933 30.3645 42.1263 30.5022 42.1095 30.6501C42.0985 30.7246 42.1035 30.8006 42.1242 30.8731C42.1449 30.9455 42.1808 31.0127 42.2295 31.0701C42.4496 31.2444 42.6916 31.389 42.9495 31.5001C43.6795 31.8801 43.7795 32.0601 43.2395 32.0601C43.1095 32.0601 42.9195 32.2301 42.6595 32.5601C42.1565 33.1687 41.5899 33.7219 40.9695 34.2101C40.2795 34.7701 39.8795 35.0001 39.7595 34.9001C39.6395 34.8001 39.7595 34.6901 39.9295 34.4601C40.3695 33.9095 40.7484 33.3126 41.0595 32.6801C41.3995 32.0135 41.5295 31.6135 41.4495 31.4801C41.3995 31.4101 41.2595 31.3701 41.0095 31.3701C40.9035 31.3873 40.7955 31.3873 40.6895 31.3701C40.6895 31.3001 40.6395 29.8101 40.6395 26.8801C40.6395 23.9501 40.6395 22.3401 40.6395 21.9801C40.6045 21.3898 40.5344 20.8021 40.4295 20.2201C40.4295 20.1601 40.6795 20.2201 41.1995 20.4401C41.5226 20.5895 41.8569 20.7132 42.1995 20.8101C42.3395 20.8101 42.7095 20.8101 43.3295 20.8101H44.3295C44.5271 20.6746 44.7025 20.5093 44.8495 20.3201C45.0495 20.1101 45.1495 20.0001 45.1595 20.0001C45.1695 20.0001 45.4195 20.1901 45.8795 20.5501C46.121 20.7293 46.3514 20.923 46.5695 21.1301C46.5695 21.1901 46.4795 21.2601 46.3195 21.3201C46.2505 21.3479 46.1882 21.3898 46.1365 21.4432C46.0848 21.4966 46.0449 21.5603 46.0195 21.6301C45.9764 21.9281 45.9597 22.2292 45.9695 22.5301C45.9417 22.8661 45.9722 23.2044 46.0595 23.5301C46.1195 23.6301 46.3295 23.7001 46.7095 23.7401C47.5256 23.8429 48.3469 23.8996 49.1695 23.9101C49.6678 23.9577 50.1705 23.9273 50.6595 23.8201C50.7695 23.7101 50.8095 23.2901 50.7995 22.5601C50.7852 21.7728 50.715 20.9875 50.5895 20.2101C50.5895 19.9901 50.5395 19.8601 50.5895 19.8401C50.6395 19.8201 50.9695 19.8401 51.6695 19.9501C52.046 19.9835 52.42 20.0403 52.7895 20.1201C52.7895 20.1201 52.7895 20.1201 52.7895 20.2601C52.7895 20.4001 52.6495 20.4701 52.5595 20.4701C52.4695 20.4701 52.3495 20.9401 52.2795 21.8901C52.173 22.4652 52.173 23.055 52.2795 23.6301C52.4595 23.9301 52.7395 23.7801 53.1195 23.1801C53.2895 22.9201 53.3895 22.7901 53.4495 22.7801C53.5095 22.7701 53.6395 22.8901 53.8695 23.1101L54.2195 23.4801C54.6195 23.8901 54.7795 24.1401 54.7095 24.2201C54.3362 24.3276 53.9457 24.3615 53.5595 24.3201C53.2433 24.2942 52.9256 24.2942 52.6095 24.3201C52.4953 24.3458 52.3931 24.4092 52.3195 24.5001C52.1976 26.0236 52.1642 27.5528 52.2195 29.0801C52.2195 32.0801 52.2195 33.6801 52.1395 33.8301C52.0158 34.1414 51.8045 34.4101 51.5311 34.6035C51.2578 34.797 50.9341 34.907 50.5995 34.9201C50.2895 34.9801 50.1295 34.9801 50.1195 34.9201C50.1095 34.8601 50.2395 34.9001 50.1595 34.7301ZM44.5495 26.4201C44.5682 26.0871 44.5682 25.7532 44.5495 25.4201V25.2901C44.5788 24.984 44.5342 24.6754 44.4195 24.3901C44.1293 24.2675 43.8122 24.2227 43.4995 24.2601H43.1495C42.8335 24.2245 42.5136 24.2692 42.2195 24.3901C42.1002 24.6637 42.052 24.963 42.0795 25.2601V25.7001C42.0303 26.0374 42.0682 26.3816 42.1895 26.7001C42.4773 26.8185 42.79 26.8632 43.0995 26.8301H43.3095C43.6449 26.8531 43.9819 26.8261 44.3095 26.7501C44.3748 26.7208 44.4313 26.675 44.4734 26.6171C44.5156 26.5592 44.5418 26.4913 44.5495 26.4201ZM44.5495 28.2701C44.5495 27.7601 44.5495 27.4701 44.4195 27.3801C44.136 27.2587 43.8257 27.2139 43.5195 27.2501H43.0995C42.9596 27.1762 42.7998 27.1491 42.6434 27.1727C42.487 27.1962 42.3423 27.2693 42.2305 27.3811C42.1187 27.493 42.0456 27.6377 42.022 27.7941C41.9984 27.9505 42.0256 28.1103 42.0995 28.2501V28.4601C42.0464 28.8919 42.0944 29.3301 42.2395 29.7401C42.2986 29.7985 42.3766 29.834 42.4595 29.8401H44.3495C44.4463 29.745 44.5125 29.6231 44.5395 29.4901C44.5569 29.157 44.5569 28.8232 44.5395 28.4901L44.5495 28.2701ZM44.5495 23.5501C44.5712 23.2172 44.5712 22.8831 44.5495 22.5501C44.5894 22.1685 44.545 21.7827 44.4195 21.4201C44.0699 21.2836 43.6921 21.2355 43.3195 21.2801C42.9477 21.234 42.5703 21.2786 42.2195 21.4101C42.0986 21.7737 42.0576 22.1592 42.0995 22.5401C42.0716 22.9176 42.1123 23.2971 42.2195 23.6601C42.2895 23.7401 42.5395 23.7801 42.9595 23.7901C43.4186 23.8299 43.8803 23.8299 44.3395 23.7901C44.3864 23.766 44.4277 23.7321 44.4604 23.6907C44.4932 23.6493 44.5168 23.6014 44.5295 23.5501H44.5495ZM44.9095 34.0001C44.8359 33.5659 44.7082 33.1426 44.5295 32.7401C44.355 32.3073 44.1337 31.8948 43.8695 31.5101C43.7195 31.2901 43.7095 31.1801 43.8695 31.1701C44.2769 31.2216 44.6634 31.3804 44.9895 31.6301C45.3653 31.8085 45.6889 32.0807 45.9288 32.4205C46.1688 32.7603 46.3171 33.1563 46.3595 33.5701C46.3672 33.7041 46.3452 33.8381 46.2951 33.9626C46.2449 34.0871 46.1679 34.1989 46.0695 34.2901C45.9852 34.3758 45.8797 34.4375 45.7638 34.4692C45.6478 34.5008 45.5256 34.5011 45.4095 34.4701C45.2823 34.4626 45.1614 34.412 45.0668 34.3265C44.9723 34.2411 44.9097 34.1259 44.8895 34.0001H44.9095Z" fill="#F0E9D7"/>
</svg>
