<svg width="95" height="142" viewBox="0 0 95 142" fill="none" xmlns="http://www.w3.org/2000/svg">
<path d="M93.2402 1.29004H1.24023V141.29H93.2402V1.29004Z" fill="#BA3F2F" stroke="#BE9360" stroke-width="0.68" stroke-miterlimit="10"/>
<path d="M90.2402 5.29004H4.24023V137.29H90.2402V5.29004Z" stroke="#BE9360" stroke-width="0.75" stroke-miterlimit="10"/>
<path d="M47.2398 22.51C21.6198 22.51 0.839844 14.51 0.839844 1H93.6398C93.6398 15.47 72.8598 22.51 47.2398 22.51Z" fill="#78352B" stroke="#BE9360" stroke-width="0.75" stroke-miterlimit="10"/>
<path d="M47.2401 43.0901C55.7508 43.0901 62.6501 36.2222 62.6501 27.7502C62.6501 19.2781 55.7508 12.4102 47.2401 12.4102C38.7294 12.4102 31.8301 19.2781 31.8301 27.7502C31.8301 36.2222 38.7294 43.0901 47.2401 43.0901Z" fill="#F1C74F" stroke="#BE9360" stroke-width="0.75" stroke-miterlimit="10"/>
<path d="M47.2398 40.6801C54.4084 40.6801 60.2198 34.8911 60.2198 27.7501C60.2198 20.609 54.4084 14.8201 47.2398 14.8201C40.0711 14.8201 34.2598 20.609 34.2598 27.7501C34.2598 34.8911 40.0711 40.6801 47.2398 40.6801Z" stroke="#BE9360" stroke-width="0.75" stroke-miterlimit="10"/>
<path d="M39.4597 25.8699C39.9677 25.1619 40.4095 24.4087 40.7797 23.6199C41.1885 22.7635 41.523 21.8736 41.7797 20.9599C41.8251 20.7689 41.8853 20.5816 41.9597 20.3999C42.5824 20.4859 43.1975 20.6197 43.7997 20.7999C43.9697 20.8499 43.9797 20.9299 43.7997 21.0299C43.6197 21.1299 43.7997 21.3299 44.2897 21.5399C44.877 21.7777 45.4083 22.1353 45.8497 22.5899C46.2497 23.0199 46.3997 23.3799 46.2897 23.6699C46.2538 23.7919 46.1925 23.9048 46.1097 24.0013C46.027 24.0979 45.9248 24.1758 45.8097 24.2299C45.7109 24.287 45.5988 24.317 45.4847 24.317C45.3706 24.317 45.2585 24.287 45.1597 24.2299C45.0052 24.0794 44.8886 23.8943 44.8197 23.6899C44.5917 23.1637 44.2959 22.6695 43.9397 22.2199C43.5997 21.7999 43.3597 21.6299 43.2097 21.7099C43.0597 21.7899 42.9397 22.0099 42.6597 22.5099C42.3207 23.1131 41.9292 23.6853 41.4897 24.2199C41.1897 24.5899 41.0597 24.8299 41.0897 24.9299C41.1197 25.0299 41.3697 25.1099 41.8097 25.1699C42.2211 25.2271 42.6384 25.2271 43.0497 25.1699C43.3227 25.0145 43.5502 24.7905 43.7097 24.5199L43.8797 24.2699C43.9115 24.2257 43.9485 24.1854 43.9897 24.1499H44.0497C44.3227 24.3612 44.5832 24.5883 44.8297 24.8299C45.0685 25.0304 45.2893 25.2512 45.4897 25.4899C45.4897 25.4899 45.4397 25.5799 45.3297 25.6799H43.6497C42.8607 25.6466 42.0703 25.6901 41.2897 25.8099C41.1997 25.8099 41.1197 25.8099 41.0297 25.5799C40.9397 25.3499 40.8097 25.2499 40.6997 25.2499C40.4816 25.3065 40.2861 25.4286 40.1397 25.5999C39.5997 26.0799 39.2897 26.2899 39.1997 26.2099C39.1097 26.1299 39.3297 26.0599 39.4597 25.8699ZM41.1897 35.3399C41.1868 34.9892 41.2035 34.6387 41.2397 34.2899C41.2897 33.4299 41.3197 32.2199 41.3297 30.6699C41.3763 29.8563 41.3563 29.0403 41.2697 28.2299C41.1497 28.0599 40.7997 28.0199 40.1997 28.0999C40.1619 28.1164 40.121 28.125 40.0797 28.125C40.0384 28.125 39.9976 28.1164 39.9597 28.0999C39.8619 27.9745 39.7812 27.8366 39.7197 27.6899C39.6197 27.4999 39.5797 27.3899 39.5997 27.3699C39.6197 27.3499 39.7397 27.3699 39.9897 27.3699C40.858 27.4876 41.7335 27.5444 42.6097 27.5399C43.1125 27.5723 43.6169 27.5723 44.1197 27.5399C44.3525 27.4433 44.5486 27.2752 44.6797 27.0599C44.7931 26.9132 44.8831 26.8532 44.9497 26.8799C45.2039 27.0252 45.4448 27.1925 45.6697 27.3799C45.9107 27.548 46.132 27.7426 46.3297 27.9599C46.3297 28.0299 46.3297 28.0999 46.1697 28.1699H46.1197C45.9873 28.2189 45.8748 28.3103 45.7997 28.4299C45.7049 29.1223 45.6715 29.8217 45.6997 30.5199C45.6997 31.5799 45.6997 32.2099 45.6997 32.4099C45.6838 32.6032 45.6184 32.7892 45.5097 32.9499C45.327 33.2179 45.0474 33.4043 44.7297 33.4699C44.3497 33.5899 44.1597 33.5499 44.1597 33.3699C44.1612 33.0884 44.0698 32.8142 43.8997 32.5899C43.8215 32.4799 43.7218 32.3868 43.6067 32.3164C43.4915 32.2459 43.3633 32.1995 43.2297 32.1799C43.0897 32.1799 43.0397 32.0699 43.0697 31.9899C43.0997 31.9099 43.2497 31.9399 43.5697 31.9899H43.6997C44.0297 31.9899 44.2297 31.9899 44.3197 31.8799C44.4359 31.3855 44.4797 30.8769 44.4497 30.3699V29.6099C44.4927 29.1398 44.452 28.6659 44.3297 28.2099C44.2697 28.1099 44.0597 28.0699 43.7197 28.0799H43.5397C43.3215 28.0753 43.1034 28.0954 42.8897 28.1399C42.8021 28.209 42.7447 28.3094 42.7297 28.4199C42.7297 28.5799 42.7297 29.3599 42.7297 30.7599C42.7297 32.1599 42.7297 33.2799 42.7997 34.1199C42.7997 34.7799 42.7997 35.1199 42.7997 35.2499C42.7997 35.3799 42.6997 35.4299 42.5597 35.5199C42.3573 35.6245 42.1366 35.689 41.9097 35.7099C41.7319 35.7732 41.5376 35.7732 41.3597 35.7099C41.299 35.6726 41.2536 35.6148 41.2317 35.547C41.2097 35.4792 41.2125 35.4058 41.2397 35.3399H41.1897ZM45.1197 35.2099C45.7298 34.8603 46.3086 34.4588 46.8497 34.0099C47.3003 33.6567 47.7065 33.2504 48.0597 32.7999C48.1897 32.5799 48.3197 32.4799 48.4297 32.4799C48.6921 32.614 48.946 32.7643 49.1897 32.9299L49.9897 33.4399C49.9974 33.4626 49.9974 33.4872 49.9897 33.5099C49.9897 33.5099 49.9297 33.5899 49.7497 33.5899C49.5088 33.6447 49.2811 33.7466 49.0797 33.8899C48.2632 34.3963 47.399 34.8216 46.4997 35.1599C45.4297 35.5799 44.8397 35.7399 44.7197 35.6199C44.5997 35.4999 44.7997 35.3899 45.1197 35.2099ZM46.7397 32.6199C46.6701 31.9785 46.6701 31.3314 46.7397 30.6899C46.8097 29.6899 46.8297 28.4099 46.8197 27.0199C46.8312 26.0774 46.7777 25.1351 46.6597 24.1999C46.629 24.0579 46.6057 23.9144 46.5897 23.7699C46.583 23.6801 46.583 23.5898 46.5897 23.4999C46.5897 23.4399 46.5897 23.4099 46.5897 23.4099L47.3797 23.7299C47.8002 23.961 48.27 24.0879 48.7497 24.0999C48.9364 24.0532 49.0564 23.7533 49.1097 23.1999C49.1329 22.9805 49.1329 22.7593 49.1097 22.5399C49.0746 22.4261 49.0168 22.3207 48.9397 22.2299H48.0697C47.642 22.2262 47.2145 22.2496 46.7897 22.2999H46.4097C46.0797 21.8099 45.9497 21.5399 46.0197 21.5099H46.3397L47.0297 21.5999H47.4097C47.6297 21.5999 48.4097 21.5999 49.6397 21.6599C50.8697 21.7199 51.5697 21.6599 51.6397 21.6599C51.7097 21.6599 52.0297 21.3999 52.3097 21.0199C52.5897 20.6399 52.6797 20.5799 52.7297 20.5799C52.7797 20.5799 52.9497 20.6999 53.2497 20.9599L53.9197 21.5399C54.2397 21.8099 54.3397 21.9899 54.2197 22.0499C53.6648 22.1422 53.1017 22.1757 52.5397 22.1499H51.0397C50.8317 22.35 50.641 22.5675 50.4697 22.7999C50.0197 23.4199 49.7997 23.7999 49.8297 23.8699C49.8597 23.9399 50.1597 24.0099 50.7597 24.0199C51.0658 24.0463 51.3736 24.0463 51.6797 24.0199C51.8559 23.9324 52.0124 23.8099 52.1397 23.6599C52.3197 23.4599 52.4397 23.3599 52.4997 23.3699C52.7316 23.5036 52.9465 23.6648 53.1397 23.8499C53.5697 24.2099 53.7997 24.4099 53.8397 24.4599C53.8797 24.5099 53.8397 24.5599 53.6897 24.6099C53.597 24.6576 53.5185 24.7289 53.4623 24.8167C53.4061 24.9046 53.3741 25.0057 53.3697 25.1099C53.3697 25.2699 53.3697 26.1099 53.3697 27.6199C53.3697 29.1299 53.3697 30.1999 53.4397 30.8299L53.5097 31.9899L53.4297 32.0699C53.2561 32.2178 53.0508 32.3239 52.8297 32.3799C52.5884 32.4625 52.3348 32.5031 52.0797 32.4999C51.9397 32.4999 51.8697 32.4199 51.8697 32.2599C51.8697 32.0399 51.7997 31.9199 51.6497 31.8899C51.1312 31.842 50.6103 31.8253 50.0897 31.8399C49.5554 31.813 49.0197 31.8365 48.4897 31.9099C48.4197 31.9099 48.3397 32.0199 48.2697 32.1899C48.1409 32.3835 47.945 32.5224 47.7197 32.5799C47.4735 32.683 47.204 32.7175 46.9397 32.6799C46.904 32.6849 46.8677 32.6821 46.8332 32.6718C46.7986 32.6614 46.7668 32.6437 46.7397 32.6199ZM51.9197 30.4399C51.9197 29.8999 51.8497 29.5799 51.6997 29.4399C51.1777 29.3546 50.6477 29.3278 50.1197 29.3599C49.5851 29.329 49.0486 29.3558 48.5197 29.4399C48.3297 29.5299 48.2397 29.8399 48.2297 30.3899C48.2197 30.9399 48.3197 31.2599 48.4997 31.3399C49.0238 31.4042 49.5523 31.4243 50.0797 31.3999C50.6107 31.418 51.1424 31.3946 51.6697 31.3299C51.8297 31.2899 51.9097 30.9799 51.9197 30.4399ZM48.2397 28.2899V28.3999C48.2397 28.6799 48.3097 28.8499 48.4497 28.9199C49.1077 29.0517 49.7798 29.0987 50.4497 29.0599H51.6697L51.7997 28.9499L51.9097 28.8399V28.0999V27.8599C51.9467 27.6089 51.9011 27.3527 51.7797 27.1299C51.3656 27.0222 50.9362 26.985 50.5097 27.0199H48.5697C48.452 27.0881 48.3605 27.1937 48.3097 27.3199C48.2833 27.5792 48.2833 27.8406 48.3097 28.0999L48.2397 28.2899ZM51.8397 26.3399C51.8582 26.1003 51.8582 25.8595 51.8397 25.6199V25.4099C51.8397 25.0099 51.7797 24.7799 51.6697 24.7199C51.2577 24.62 50.8324 24.5862 50.4097 24.6199H49.6497C49.2271 24.5862 48.8018 24.62 48.3897 24.7199C48.2697 24.7799 48.2097 25.0099 48.2097 25.4099V25.7799C48.2097 26.1499 48.2597 26.3799 48.3397 26.4499C48.7411 26.5878 49.1672 26.6389 49.5897 26.5999H51.3297C51.4269 26.6071 51.524 26.5862 51.6097 26.5399C51.6725 26.5301 51.7305 26.5006 51.7755 26.4557C51.8204 26.4107 51.8499 26.3527 51.8597 26.2899L51.8397 26.3399ZM53.0097 35.3399C52.3656 34.4559 51.5821 33.6825 50.6897 33.0499C50.5881 32.9801 50.4943 32.8997 50.4097 32.8099C50.4097 32.8099 50.4097 32.7399 50.4097 32.6899C50.7229 32.6795 51.036 32.7131 51.3397 32.7899C51.6797 32.8399 51.8797 32.8799 51.9497 32.8999L52.4897 33.1299C53.6897 33.6299 54.2697 34.2699 54.2397 35.0299C54.2446 35.1493 54.2174 35.2678 54.1611 35.3732C54.1047 35.4785 54.0212 35.5669 53.9192 35.6291C53.8172 35.6913 53.7004 35.7252 53.5809 35.7271C53.4615 35.7289 53.3437 35.6989 53.2397 35.6399C53.1464 35.5389 53.0749 35.4198 53.0297 35.2899L53.0097 35.3399Z" fill="#420104"/>
</svg>
