<svg width="95" height="142" viewBox="0 0 95 142" fill="none" xmlns="http://www.w3.org/2000/svg">
<path d="M94.2402 1.29004H1.24023V141.29H94.2402V1.29004Z" fill="#939393" stroke="#F0E9D7" stroke-width="0.68" stroke-miterlimit="10"/>
<path d="M90.2402 5.29004H4.24023V137.29H90.2402V5.29004Z" fill="#A3A3A3" stroke="#F0E9D7" stroke-width="0.75" stroke-miterlimit="10"/>
<path d="M47.4 22.51C21.77 22.51 1 14.51 1 1H93.79C93.79 15.47 73.02 22.51 47.4 22.51Z" fill="#848484" stroke="#F0E9D7" stroke-width="0.75" stroke-miterlimit="10"/>
<path d="M47.4002 43.0901C55.9109 43.0901 62.8102 36.2222 62.8102 27.7502C62.8102 19.2781 55.9109 12.4102 47.4002 12.4102C38.8895 12.4102 31.9902 19.2781 31.9902 27.7502C31.9902 36.2222 38.8895 43.0901 47.4002 43.0901Z" fill="#7C7C7C" stroke="#F0E9D7" stroke-width="0.75" stroke-miterlimit="10"/>
<path d="M47.3999 40.6801C54.5686 40.6801 60.3799 34.8911 60.3799 27.7501C60.3799 20.609 54.5686 14.8201 47.3999 14.8201C40.2313 14.8201 34.4199 20.609 34.4199 27.7501C34.4199 34.8911 40.2313 40.6801 47.3999 40.6801Z" stroke="#F0E9D7" stroke-width="0.75" stroke-miterlimit="10"/>
<path d="M40.02 34.89C40.02 34.89 40.19 34.74 40.52 34.57C41.573 34.0608 42.5014 33.3269 43.24 32.42C43.8865 31.5371 44.2993 30.5052 44.44 29.42C44.54 28.72 44.5 28.33 44.33 28.24C43.8603 28.2163 43.3897 28.2163 42.92 28.24C42.0267 28.24 41.4367 28.24 41.15 28.24C40.9537 28.257 40.7563 28.257 40.56 28.24H40.42L40.24 27.9C40.173 27.7901 40.1193 27.6726 40.08 27.55C40.08 27.55 40.08 27.47 40.16 27.49C40.6527 27.5777 41.1503 27.6344 41.65 27.66C42.08 27.66 43.9 27.71 47.11 27.66C50.32 27.61 51.95 27.66 52.03 27.59C52.2879 27.3815 52.5166 27.1394 52.71 26.87C52.85 26.68 52.95 26.6 53 26.61C53.2044 26.7216 53.3956 26.8557 53.57 27.01C53.8895 27.2509 54.1966 27.5079 54.49 27.78C54.5049 27.7931 54.5169 27.8093 54.525 27.8274C54.5332 27.8455 54.5374 27.8651 54.5374 27.885C54.5374 27.9048 54.5332 27.9245 54.525 27.9426C54.5169 27.9607 54.5049 27.9769 54.49 27.99C54.3459 28.0678 54.1837 28.1058 54.02 28.1C53.77 28.1 53.1 28.1 52.02 28.1H49.89L49.77 28.18C49.6798 28.3123 49.6342 28.4699 49.64 28.63C49.64 28.86 49.64 29.55 49.64 30.71V31.44C49.5939 31.9555 49.6482 32.4751 49.8 32.97C49.91 33.12 50.29 33.18 50.95 33.16H52.55C52.7354 33.1755 52.9219 33.1485 53.0952 33.0809C53.2685 33.0133 53.4241 32.9069 53.55 32.77C53.7908 32.2584 53.9623 31.7169 54.06 31.16V31.05C54.06 30.91 54.16 30.87 54.21 30.92C54.2506 31.2251 54.274 31.5322 54.28 31.84C54.28 32.3333 54.3 32.6433 54.34 32.77C54.3608 32.8968 54.4286 33.011 54.53 33.09C54.6687 33.2001 54.7757 33.345 54.84 33.51C54.8878 33.6955 54.8627 33.8923 54.77 34.06C54.6079 34.2403 54.3892 34.3602 54.15 34.4C53.7433 34.499 53.3281 34.5593 52.91 34.58C52.4 34.58 51.7 34.58 50.83 34.58C50.1606 34.6096 49.49 34.566 48.83 34.45C48.6791 34.4102 48.541 34.3322 48.4289 34.2237C48.3169 34.1151 48.2346 33.9795 48.19 33.83C48.19 33.69 48.12 32.74 48.11 30.98V30.04C48.11 29.62 48.11 29.3 48.11 29.04C48.11 28.78 48.11 28.61 48.11 28.45C48.1154 28.3942 48.1093 28.3379 48.0921 28.2846C48.0749 28.2313 48.047 28.1821 48.01 28.14C47.9524 28.091 47.8838 28.0567 47.81 28.04H47.18C46.9092 28.0106 46.6353 28.0448 46.38 28.14C46.29 28.2 46.22 28.43 46.16 28.83C46.0425 30.1211 45.5604 31.3523 44.77 32.38C43.8587 33.3588 42.7125 34.0885 41.44 34.5C40.61 34.82 40.16 34.94 40.08 34.84C40.0645 34.8613 40.0438 34.8785 40.02 34.89ZM40.16 24.89C40.1775 24.7069 40.2371 24.5303 40.3343 24.3742C40.4314 24.218 40.5635 24.0865 40.72 23.99C41.1002 23.6954 41.4142 23.3242 41.6416 22.9004C41.869 22.4766 42.0048 22.0096 42.04 21.53C42.04 21.28 42.11 21.15 42.17 21.12C42.23 21.09 42.34 21.28 42.43 21.69C42.4274 21.7199 42.4274 21.75 42.43 21.78C42.43 22.01 42.55 22.14 42.67 22.19C43.2858 22.2795 43.908 22.3163 44.53 22.3H46.24C46.3004 22.3004 46.3597 22.2837 46.411 22.2519C46.4623 22.22 46.5036 22.1743 46.53 22.12C46.5768 21.8386 46.5768 21.5514 46.53 21.27C46.5018 20.8268 46.4451 20.3859 46.36 19.95C46.3438 19.8742 46.3438 19.7958 46.36 19.72C46.755 19.7218 47.1493 19.7519 47.54 19.81C47.9261 19.8356 48.3102 19.8857 48.69 19.96C48.69 19.96 48.69 20.03 48.69 20.08C48.6575 20.1356 48.6131 20.1834 48.56 20.22C48.4096 20.2889 48.2889 20.4095 48.22 20.56C48.1582 20.7947 48.1345 21.0378 48.15 21.28C48.1315 21.4996 48.1315 21.7204 48.15 21.94C48.1873 22.0543 48.2526 22.1574 48.34 22.24H50.34C51.52 22.24 52.19 22.24 52.34 22.24C52.5795 22.1616 52.7913 22.0157 52.95 21.82C53.2 21.57 53.35 21.46 53.41 21.47C53.6784 21.6681 53.9263 21.8925 54.15 22.14L54.88 22.87C54.7929 22.9403 54.6899 22.9883 54.58 23.01C54.3118 23.0947 54.0658 23.2382 53.86 23.43C53.3131 23.9376 52.6969 24.3652 52.03 24.7C51.9 24.7 51.93 24.47 52.11 23.99C52.2349 23.6973 52.3288 23.3923 52.39 23.08C52.4028 23.0192 52.3925 22.9557 52.361 22.9021C52.3296 22.8485 52.2793 22.8085 52.22 22.79C52.14 22.74 50.57 22.72 47.53 22.73C44.49 22.74 42.93 22.73 42.86 22.8C42.79 22.87 42.64 23.06 42.6 23.4C42.5532 24.0248 42.3119 24.6193 41.91 25.1C41.7781 25.2922 41.5904 25.4394 41.3723 25.5216C41.1541 25.6039 40.916 25.6172 40.69 25.56C40.6114 25.5525 40.5352 25.5294 40.4657 25.492C40.3962 25.4546 40.3349 25.4036 40.2855 25.342C40.2361 25.2805 40.1995 25.2097 40.178 25.1337C40.1564 25.0578 40.1503 24.9783 40.16 24.9V24.89ZM42.82 25.09C42.73 24.91 42.7 24.82 42.73 24.8C42.76 24.78 42.89 24.8 43.13 24.8H43.26L43.7 24.85H44.1C44.38 24.85 45.32 24.91 46.93 24.91C48.54 24.91 49.38 24.91 49.47 24.91C49.7321 24.7448 49.9569 24.5268 50.13 24.27C50.2155 24.1384 50.3239 24.0232 50.45 23.93C50.6286 24.0113 50.7938 24.1191 50.94 24.25C51.1414 24.421 51.3517 24.5812 51.57 24.73C51.68 24.8 51.73 24.84 51.73 24.86C51.7433 24.8911 51.7639 24.9185 51.79 24.94L51.86 25.02C51.97 25.13 52 25.22 51.96 25.3C51.7635 25.392 51.5461 25.43 51.33 25.41C50.97 25.41 49.82 25.41 47.88 25.41C45.2 25.41 43.67 25.41 43.29 25.49H43.06L42.87 25.1L42.82 25.09Z" fill="#F0E9D7"/>
</svg>
