<?xml version="1.0" encoding="utf-8"?>
<!-- Generator: Adobe Illustrator 16.0.0, SVG Export Plug-In . SVG Version: 6.00 Build 0)  -->
<!DOCTYPE svg PUBLIC "-//W3C//DTD SVG 1.1//EN" "http://www.w3.org/Graphics/SVG/1.1/DTD/svg11.dtd">
<svg version="1.1" id="圖層_1" xmlns="http://www.w3.org/2000/svg" xmlns:xlink="http://www.w3.org/1999/xlink" x="0px" y="0px"
	 width="146.27px" height="39px" viewBox="0 0 146.27 39" enable-background="new 0 0 146.27 39" xml:space="preserve">
<path fill="#590A10" d="M19.24,38.67c10.51,0,19.029-8.52,19.029-19.03c0-10.51-8.52-19.03-19.029-19.03
	C8.73,0.61,0.21,9.13,0.21,19.64C0.21,30.15,8.73,38.67,19.24,38.67z"/>
<path fill="#590A10" d="M73.24,38.67c10.51,0,19.029-8.52,19.029-19.03c0-10.51-8.52-19.03-19.029-19.03S54.21,9.13,54.21,19.64
	C54.21,30.15,62.73,38.67,73.24,38.67z"/>
<path fill="#590A10" d="M127.24,38.67c10.51,0,19.029-8.52,19.029-19.03c0-10.51-8.52-19.03-19.029-19.03s-19.03,8.521-19.03,19.03
	C108.21,30.15,116.73,38.67,127.24,38.67z"/>
</svg>
