<?xml version="1.0" encoding="utf-8"?>
<!-- Generator: Adobe Illustrator 16.0.0, SVG Export Plug-In . SVG Version: 6.00 Build 0)  -->
<!DOCTYPE svg PUBLIC "-//W3C//DTD SVG 1.1//EN" "http://www.w3.org/Graphics/SVG/1.1/DTD/svg11.dtd">
<svg version="1.1" id="圖層_1" xmlns="http://www.w3.org/2000/svg" xmlns:xlink="http://www.w3.org/1999/xlink" x="0px" y="0px"
	 width="1429.59px" height="540.71px" viewBox="254.91 0 1429.59 540.71" enable-background="new 254.91 0 1429.59 540.71"
	 xml:space="preserve">
<path fill="#E2D7C0" d="M1684.16,0H254.91v540.71h1429.84L1684.16,0z"/>
<path fill="#F0E9D7" d="M1642.61,101.71c1.51-1.504,2.529-3.421,2.95-5.508c0.409-2.086,0.199-4.25-0.61-6.215
	c-0.82-1.966-2.2-3.647-3.96-4.831c-1.771-1.183-3.851-1.815-5.98-1.816h-7.43c-0.391-0.01-0.76-0.169-1.04-0.444
	c-0.271-0.275-0.43-0.646-0.44-1.036v-8.9c0.011-0.375,0.17-0.732,0.431-1c0.14-0.138,0.3-0.247,0.479-0.32s0.38-0.111,0.57-0.11
	h14.79c2.06,0,4.04-0.819,5.5-2.279c1.46-1.459,2.28-3.438,2.28-5.501s-0.82-4.042-2.28-5.501c-1.46-1.459-3.44-2.279-5.5-2.279
	h-14.79c-0.391,0-0.77-0.156-1.05-0.434c-0.271-0.278-0.431-0.654-0.431-1.046V39.7c0-2.063-0.819-4.042-2.279-5.501
	s-3.44-2.279-5.5-2.279c-2.061,0-4.04,0.82-5.5,2.279s-2.28,3.438-2.28,5.501v14.79c-0.01,0.376-0.16,0.734-0.43,1
	c-0.261,0.269-0.62,0.426-1,0.439h-8.95c-0.391,0-0.771-0.156-1.05-0.433c-0.271-0.278-0.431-0.654-0.431-1.046v-7.43
	c0-2.128-0.63-4.208-1.81-5.978c-1.19-1.77-2.87-3.148-4.83-3.963c-1.97-0.814-4.13-1.027-6.22-0.612s-4,1.44-5.51,2.945
	c-1.5,1.504-2.53,3.422-2.94,5.509c-0.42,2.087-0.21,4.25,0.61,6.217c0.81,1.966,2.189,3.646,3.959,4.829
	c1.771,1.182,3.851,1.813,5.98,1.813h7.43c0.19,0,0.391,0.039,0.57,0.113c0.17,0.075,0.34,0.184,0.47,0.321
	c0.141,0.138,0.25,0.301,0.32,0.48s0.11,0.372,0.11,0.565v8.9c0,0.39-0.15,0.764-0.431,1.04c-0.279,0.275-0.649,0.43-1.04,0.43
	h-14.789c-2.061,0-4.041,0.82-5.5,2.279c-1.461,1.459-2.28,3.438-2.28,5.501c0,2.063,0.819,4.042,2.28,5.501
	c1.459,1.459,3.439,2.279,5.5,2.279h14.789c0.381,0.013,0.74,0.17,1,0.44c0.271,0.264,0.42,0.623,0.431,1v14.79
	c0.069,2.016,0.92,3.926,2.38,5.327c1.45,1.401,3.39,2.184,5.41,2.184c2.01,0,3.949-0.783,5.399-2.184
	c1.46-1.401,2.311-3.311,2.38-5.327V86.63c0.011-0.377,0.16-0.736,0.431-1c0.26-0.27,0.62-0.427,1-0.44h8.899
	c0.391,0.002,0.771,0.159,1.04,0.436c0.28,0.277,0.44,0.652,0.44,1.044v7.43c0,2.126,0.63,4.205,1.81,5.973
	c1.19,1.768,2.87,3.146,4.83,3.96c1.96,0.814,4.13,1.028,6.21,0.615c2.09-0.414,4-1.436,5.51-2.938H1642.61z M1595.36,55.93h-7.431
	c-1.76,0.002-3.49-0.519-4.949-1.497c-1.471-0.978-2.61-2.369-3.291-3.997c-0.67-1.628-0.85-3.419-0.51-5.149
	c0.34-1.729,1.19-3.317,2.44-4.564c1.24-1.247,2.83-2.097,4.56-2.441c1.73-0.345,3.521-0.169,5.15,0.505
	c1.63,0.674,3.02,1.816,4,3.281s1.5,3.188,1.5,4.951v7.43c-0.01,0.376-0.16,0.735-0.43,1c-0.131,0.142-0.29,0.255-0.471,0.334
	c-0.18,0.079-0.369,0.122-0.569,0.125V55.93z M1627.58,57.78h14.79c0.8-0.033,1.6,0.096,2.34,0.379
	c0.75,0.283,1.43,0.714,2.01,1.268c0.58,0.553,1.04,1.218,1.351,1.953c0.31,0.735,0.47,1.526,0.47,2.326s-0.16,1.59-0.47,2.325
	c-0.311,0.735-0.771,1.4-1.351,1.953s-1.26,0.984-2.01,1.267c-0.74,0.283-1.54,0.412-2.34,0.379h-14.79
	c-0.19,0.001-0.391-0.036-0.57-0.109c-0.18-0.074-0.34-0.183-0.479-0.32c-0.261-0.268-0.42-0.625-0.431-1v-8.9
	c0-0.392,0.16-0.768,0.431-1.05c0.13-0.148,0.29-0.269,0.479-0.353c0.18-0.084,0.37-0.131,0.57-0.138V57.78z M1624.25,59.26v8.9
	c-0.01,0.377-0.17,0.735-0.439,1c-0.261,0.269-0.621,0.423-1,0.43h-8.9c-0.391,0-0.76-0.155-1.04-0.431
	c-0.271-0.275-0.431-0.649-0.431-1.039v-8.9c0-0.194,0.041-0.386,0.11-0.566c0.07-0.18,0.181-0.343,0.32-0.48
	c0.13-0.138,0.3-0.247,0.479-0.322c0.17-0.074,0.37-0.112,0.561-0.112h8.9c0.39,0.01,0.76,0.173,1.029,0.455
	c0.271,0.28,0.42,0.656,0.41,1.045V59.26z M1612.4,39.66c0.06-1.529,0.71-2.976,1.819-4.035c1.101-1.06,2.57-1.651,4.11-1.651
	c1.53,0,3,0.592,4.1,1.651c1.11,1.06,1.76,2.506,1.82,4.035v14.79c-0.01,0.377-0.17,0.735-0.439,1c-0.261,0.271-0.621,0.429-1,0.439
	h-8.9c-0.391-0.005-0.76-0.163-1.04-0.439c-0.271-0.277-0.431-0.65-0.431-1.04L1612.4,39.66z M1598.689,59.26
	c0-0.194,0.041-0.388,0.11-0.568c0.07-0.18,0.181-0.344,0.32-0.481s0.3-0.247,0.479-0.321c0.181-0.074,0.381-0.111,0.57-0.11h8.891
	c0.39,0.01,0.76,0.169,1.039,0.445c0.271,0.275,0.431,0.646,0.44,1.035v8.9c0,0.194-0.04,0.386-0.11,0.565
	c-0.08,0.179-0.189,0.341-0.319,0.478c-0.141,0.136-0.3,0.245-0.48,0.318c-0.18,0.073-0.38,0.11-0.569,0.109h-8.9
	c-0.19,0.001-0.391-0.036-0.57-0.109c-0.17-0.073-0.34-0.182-0.479-0.318c-0.13-0.137-0.24-0.299-0.32-0.478
	c-0.07-0.179-0.11-0.371-0.11-0.565L1598.689,59.26z M1595.36,83.34h-14.79c-0.78,0.001-1.551-0.151-2.271-0.45
	s-1.37-0.737-1.92-1.29c-0.83-0.828-1.39-1.884-1.62-3.033c-0.229-1.149-0.12-2.341,0.33-3.423c0.45-1.083,1.21-2.008,2.19-2.658
	c0.97-0.65,2.12-0.997,3.29-0.995h14.79c0.39,0.01,0.76,0.168,1.029,0.441c0.271,0.273,0.431,0.642,0.44,1.028v8.9
	c-0.01,0.376-0.16,0.734-0.43,1c-0.271,0.284-0.65,0.449-1.04,0.46V83.34z M1599.12,82.91c-0.271-0.266-0.42-0.624-0.431-1v-8.9
	c0-0.194,0.041-0.386,0.11-0.564c0.08-0.179,0.19-0.342,0.32-0.479c0.14-0.136,0.31-0.245,0.479-0.318
	c0.181-0.073,0.381-0.11,0.57-0.109h8.891c0.189-0.001,0.39,0.036,0.569,0.109c0.181,0.073,0.34,0.182,0.48,0.318
	c0.13,0.137,0.239,0.299,0.319,0.479c0.07,0.179,0.11,0.371,0.11,0.564v8.9c-0.01,0.376-0.16,0.734-0.43,1
	c-0.271,0.263-0.62,0.416-1,0.43h-8.95c-0.38-0.02-0.73-0.18-1-0.45L1599.12,82.91z M1610.54,101.46
	c-0.06,1.529-0.71,2.975-1.82,4.035c-1.1,1.06-2.569,1.651-4.1,1.651c-1.54,0-3.01-0.591-4.11-1.651
	c-1.109-1.06-1.76-2.506-1.82-4.035V86.67c0.011-0.377,0.16-0.736,0.431-1c0.27-0.269,0.62-0.426,1-0.44h8.89
	c0.391,0,0.771,0.156,1.051,0.433c0.27,0.278,0.43,0.654,0.43,1.047L1610.54,101.46z M1622.77,83.34h-8.899
	c-0.38-0.013-0.73-0.167-1-0.43c-0.271-0.266-0.42-0.624-0.431-1v-8.9c0-0.187,0.041-0.371,0.121-0.543
	c0.069-0.171,0.18-0.327,0.31-0.457c0.27-0.267,0.62-0.421,1-0.43h8.899c0.391,0.008,0.761,0.165,1.03,0.438
	c0.28,0.273,0.44,0.643,0.45,1.031v8.9c-0.03,0.373-0.2,0.722-0.47,0.976c-0.271,0.254-0.641,0.396-1.011,0.395V83.34z
	 M1626.1,86.67c0-0.392,0.16-0.767,0.44-1.044c0.271-0.277,0.649-0.434,1.04-0.436h7.43c1.76,0.002,3.48,0.525,4.94,1.504
	c1.46,0.979,2.6,2.369,3.27,3.994c0.681,1.626,0.851,3.415,0.511,5.14c-0.341,1.726-1.19,3.311-2.44,4.554
	c-1.24,1.244-2.83,2.092-4.55,2.435c-1.73,0.344-3.521,0.169-5.141-0.504c-1.63-0.672-3.02-1.811-4-3.273
	c-0.97-1.462-1.5-3.182-1.5-4.941V86.67z"/>
<path fill="#F0E9D7" d="M336.5,522.46c1.502-1.505,2.524-3.422,2.938-5.508s0.199-4.248-0.614-6.212
	c-0.815-1.964-2.193-3.645-3.96-4.825c-1.769-1.182-3.848-1.814-5.974-1.815h-7.42c-0.39-0.01-0.76-0.169-1.036-0.444
	c-0.274-0.275-0.434-0.646-0.443-1.035v-8.91c0-0.194,0.038-0.386,0.112-0.565c0.074-0.179,0.184-0.341,0.321-0.478
	c0.137-0.137,0.301-0.245,0.48-0.318c0.18-0.072,0.372-0.109,0.565-0.108h14.79c2.063,0,4.042-0.82,5.501-2.279
	s2.279-3.438,2.279-5.501c0-2.063-0.82-4.042-2.279-5.501s-3.438-2.279-5.501-2.279h-14.79c-0.393,0-0.769-0.155-1.047-0.433
	c-0.276-0.278-0.433-0.655-0.433-1.047v-14.79c0-2.063-0.82-4.042-2.279-5.501s-3.438-2.279-5.501-2.279s-4.043,0.82-5.502,2.279
	s-2.278,3.438-2.278,5.501v14.79c-0.009,0.376-0.163,0.734-0.43,1c-0.265,0.269-0.623,0.426-1,0.439h-8.9
	c-0.391-0.003-0.765-0.159-1.04-0.437c-0.276-0.277-0.43-0.652-0.43-1.043v-7.43c0-2.129-0.631-4.21-1.814-5.979
	c-1.182-1.77-2.863-3.149-4.829-3.963c-1.966-0.814-4.129-1.027-6.216-0.612c-2.088,0.415-4.005,1.44-5.51,2.945
	c-1.505,1.504-2.529,3.422-2.945,5.509c-0.415,2.087-0.202,4.251,0.613,6.217c0.814,1.967,2.193,3.646,3.963,4.829
	c1.769,1.183,3.85,1.813,5.978,1.813h7.43c0.194,0,0.386,0.038,0.565,0.112c0.179,0.074,0.341,0.185,0.478,0.321
	c0.136,0.138,0.244,0.301,0.318,0.48c0.073,0.18,0.11,0.372,0.109,0.565v8.891c0.001,0.193-0.036,0.386-0.109,0.565
	c-0.074,0.18-0.182,0.342-0.318,0.48c-0.137,0.137-0.299,0.247-0.478,0.32c-0.179,0.075-0.371,0.113-0.565,0.113h-14.84
	c-2.064,0-4.043,0.82-5.502,2.279s-2.278,3.437-2.278,5.501c0,2.063,0.819,4.042,2.278,5.501s3.438,2.279,5.502,2.279h14.79
	c0.377,0.013,0.735,0.17,1,0.439c0.269,0.263,0.424,0.623,0.43,1v14.79c0,2.063,0.819,4.042,2.278,5.501s3.438,2.279,5.502,2.279
	c2.063,0,4.042-0.82,5.501-2.279s2.279-3.438,2.279-5.501v-14.79c0.01-0.378,0.168-0.737,0.439-1c0.265-0.27,0.622-0.427,1-0.439
	h8.9c0.391,0.003,0.766,0.158,1.043,0.436s0.434,0.652,0.437,1.044v7.43c0.003,2.126,0.637,4.203,1.818,5.97
	c1.183,1.766,2.862,3.143,4.826,3.956c1.964,0.813,4.125,1.025,6.21,0.611s4.001-1.436,5.506-2.937L336.5,522.46z M289.25,476.71
	h-7.43c-1.763,0.002-3.487-0.519-4.953-1.497c-1.467-0.978-2.61-2.369-3.286-3.996c-0.676-1.628-0.854-3.42-0.511-5.148
	c0.342-1.729,1.19-3.318,2.436-4.565s2.833-2.096,4.562-2.441c1.728-0.345,3.52-0.169,5.149,0.506c1.629,0.674,3.021,1.815,4,3.281
	c0.98,1.466,1.503,3.188,1.503,4.951v7.431c-0.003,0.39-0.158,0.763-0.433,1.039C290.012,476.547,289.64,476.705,289.25,476.71z
	 M321.47,478.56h14.79c0.798-0.032,1.596,0.097,2.343,0.38c0.747,0.282,1.431,0.714,2.007,1.268
	c0.576,0.553,1.035,1.217,1.349,1.952c0.314,0.735,0.475,1.526,0.475,2.326c0,0.799-0.16,1.59-0.475,2.324
	c-0.313,0.736-0.772,1.4-1.349,1.953c-0.576,0.555-1.26,0.985-2.007,1.269s-1.545,0.412-2.343,0.379h-14.79
	c-0.194,0.001-0.388-0.036-0.567-0.11c-0.181-0.074-0.345-0.183-0.482-0.32c-0.137-0.138-0.246-0.302-0.32-0.481
	c-0.073-0.18-0.111-0.373-0.109-0.568v-8.89c0.016-0.375,0.169-0.731,0.43-1c0.132-0.15,0.293-0.272,0.473-0.358
	c0.182-0.086,0.377-0.134,0.577-0.142V478.56z M318.14,480.04v8.89c-0.001,0.195-0.04,0.39-0.114,0.569
	c-0.076,0.18-0.187,0.344-0.325,0.481c-0.267,0.267-0.624,0.421-1,0.43h-8.9c-0.39-0.003-0.764-0.158-1.04-0.434
	c-0.276-0.274-0.435-0.646-0.439-1.036v-8.9c0.002-0.392,0.158-0.767,0.436-1.044s0.652-0.433,1.044-0.437h8.9
	c0.385,0.006,0.754,0.161,1.025,0.434c0.273,0.272,0.43,0.641,0.435,1.026L318.14,480.04z M306.28,460.44
	c0-1.573,0.624-3.081,1.736-4.193s2.62-1.737,4.193-1.737c1.572,0,3.081,0.625,4.193,1.737c1.111,1.112,1.736,2.62,1.736,4.193
	v14.79c-0.013,0.377-0.171,0.735-0.439,1c-0.265,0.271-0.622,0.429-1,0.439h-8.9c-0.391-0.005-0.765-0.163-1.041-0.438
	c-0.276-0.277-0.434-0.65-0.438-1.041L306.28,460.44z M292.58,480.04c-0.002-0.194,0.035-0.386,0.109-0.566
	c0.073-0.179,0.181-0.342,0.318-0.479c0.136-0.137,0.299-0.247,0.478-0.321c0.179-0.075,0.371-0.113,0.565-0.113h8.9
	c0.389,0.011,0.76,0.17,1.035,0.445c0.274,0.275,0.435,0.646,0.444,1.035v8.89c0,0.393-0.155,0.77-0.434,1.047
	c-0.277,0.277-0.654,0.434-1.046,0.434h-8.9c-0.194,0-0.386-0.038-0.565-0.113c-0.179-0.074-0.342-0.184-0.478-0.321
	c-0.137-0.138-0.245-0.301-0.318-0.479c-0.074-0.18-0.111-0.372-0.109-0.566V480.04z M289.25,504.12h-14.79
	c-0.779,0.001-1.55-0.152-2.27-0.45c-0.719-0.299-1.372-0.737-1.92-1.29c-0.83-0.828-1.395-1.883-1.624-3.033
	c-0.229-1.148-0.112-2.341,0.337-3.424c0.449-1.082,1.209-2.007,2.184-2.658c0.975-0.649,2.121-0.997,3.293-0.995h14.79
	c0.386,0.011,0.754,0.169,1.028,0.442c0.273,0.273,0.432,0.641,0.442,1.028v8.899c0.001,0.195-0.036,0.389-0.11,0.568
	c-0.074,0.18-0.183,0.344-0.32,0.482c-0.281,0.266-0.654,0.411-1.04,0.409V504.12z M293.01,503.69
	c-0.138-0.139-0.247-0.303-0.321-0.482c-0.074-0.18-0.111-0.373-0.109-0.568v-8.93c0-0.194,0.038-0.386,0.113-0.565
	c0.074-0.179,0.183-0.341,0.321-0.478c0.137-0.137,0.301-0.245,0.48-0.318c0.18-0.072,0.372-0.109,0.566-0.108h8.89
	c0.193-0.001,0.386,0.036,0.564,0.108c0.181,0.073,0.344,0.182,0.481,0.318c0.137,0.137,0.246,0.299,0.321,0.478
	c0.073,0.18,0.112,0.371,0.112,0.565v8.9c0.001,0.194-0.036,0.388-0.109,0.567c-0.074,0.181-0.184,0.345-0.32,0.482
	c-0.269,0.263-0.625,0.416-1,0.43h-8.9c-0.198,0.012-0.396-0.016-0.583-0.081c-0.187-0.064-0.36-0.167-0.507-0.299V503.69z
	 M304.43,522.24c0.032,0.799-0.096,1.596-0.379,2.343s-0.715,1.43-1.268,2.007c-0.553,0.576-1.218,1.035-1.953,1.349
	s-1.526,0.475-2.325,0.475c-0.8,0-1.591-0.161-2.326-0.475c-0.735-0.313-1.399-0.772-1.953-1.349
	c-0.553-0.577-0.984-1.26-1.267-2.007s-0.412-1.544-0.379-2.343v-14.79c0.007-0.377,0.161-0.736,0.43-1
	c0.264-0.271,0.622-0.427,1-0.44h8.9c0.392,0,0.769,0.156,1.046,0.434c0.278,0.277,0.434,0.653,0.434,1.047L304.43,522.24z
	 M316.66,504.12h-8.9c-0.376-0.013-0.732-0.167-1-0.43c-0.139-0.138-0.25-0.302-0.325-0.481s-0.114-0.374-0.114-0.569v-8.93
	c0.005-0.39,0.163-0.762,0.439-1.037c0.276-0.274,0.65-0.43,1.04-0.433h8.9c0.385,0.013,0.75,0.172,1.021,0.444
	c0.271,0.273,0.429,0.641,0.438,1.025v8.9c0,0.195-0.039,0.391-0.115,0.571c-0.075,0.183-0.186,0.347-0.325,0.485
	c-0.14,0.138-0.305,0.248-0.486,0.323c-0.183,0.074-0.377,0.11-0.573,0.109V504.12z M319.99,507.45
	c0.002-0.393,0.159-0.768,0.436-1.044c0.277-0.277,0.652-0.434,1.044-0.437h7.42c1.761,0,3.48,0.522,4.943,1.499
	c1.464,0.979,2.604,2.367,3.278,3.993c0.674,1.625,0.851,3.414,0.508,5.141c-0.342,1.727-1.189,3.313-2.434,4.558
	c-1.242,1.245-2.827,2.093-4.554,2.438c-1.726,0.345-3.515,0.17-5.141-0.503c-1.627-0.672-3.018-1.811-3.997-3.272
	c-0.979-1.463-1.502-3.183-1.504-4.942V507.45z"/>
<path fill="#F0E9D7" d="M1220.66,70.71h-22.95l-38.3,66.06l-38.61-66.06h-22.64l61.25,105.65L1220.66,70.71z"/>
<path fill="#F0E9D7" d="M1127.95,70.71l31.439,54.04l31.181-54.04h-18.2l-12.97,22.56l-13.25-22.56H1127.95z"/>
<path fill="#F0E9D7" d="M1473.4,319.49v102.76h102.76V319.49H1473.4z M1529.32,399.641c0,10-5.86,14.549-14.42,14.549
	c-7.721,0-12.211-4-14.48-8.819l7.86-4.761c1.52,2.69,2.899,5,6.21,5c3.31,0,5.17-1.239,5.17-6.069v-32.83h9.66V399.641z
	 M1552.15,414.2c-9,0-14.761-4.28-17.59-9.87l7.859-4.551c2.07,3.381,4.76,5.861,9.52,5.861c4,0,6.551-2,6.551-4.761
	c0-3.31-2.62-4.479-7-6.409l-2.41-1c-7-3-11.59-6.691-11.59-14.551c0-7.24,5.52-12.76,14.14-12.76c6.14,0,10.56,2.14,13.73,7.72
	l-7.521,4.83c-1.66-3-3.45-4.14-6.21-4.14s-4.62,1.8-4.62,4.14c0,2.899,1.79,4.069,5.93,5.87l2.421,1
	c8.2,3.52,12.829,7.109,12.829,15.17c-0.029,8.689-6.859,13.45-16.029,13.45H1552.15z"/>
<path fill="#F0E9D7" d="M321.16,174.27V294.6h120.29V174.27H321.16z M437.07,290.18H325.54V178.71h111.49L437.07,290.18z"/>
<path fill="#F0E9D7" d="M426.921,263.44v-35c0-10.57-16.16-17.67-36.39-9.41v44.41h12v-38.25c6.279-2.09,13.6-1.16,13.6,4.18v34.07
	H426.921z M366.811,198.71h-13l-17.92,64l10,0.58l4.891-18h19.18l4.771,18h11.51L366.811,198.71z M353.331,235.22l6.74-26.86
	l7.09,26.86H353.331z"/>
<path fill="#F0E9D7" d="M748.37,297.439h5v4.951h4.58v-4.951h5v15h-5v-5h-4.58v5h-5V297.439z"/>
<path fill="#F0E9D7" d="M769.56,302.41h-4.399v-5h13.83v5h-4.41v10h-5v-10H769.56z"/>
<path fill="#F0E9D7" d="M781.16,297.439h5.229l3.21,5.271l3.21-5.271h5.221v15h-5v-7.43l-3.45,5.33h-0.09l-3.45-5.33v7.43h-4.88
	V297.439z"/>
<path fill="#F0E9D7" d="M800.54,297.439h5v10h7v4.951h-12V297.439z"/>
<path fill="#F0E9D7" d="M780.41,335.71h-0.03H755.7l0.229,2.64l2.431,27.16h22.02h0.03h12.1l-1.14,12.79l-10.99,2.96h-0.01
	l-10.98-2.96l-0.699-7.86h-5.33H758.8l1.38,15.48l20.19,5.6l0.04-0.01l20.17-5.59l0.15-1.67l2.319-25.95l0.24-2.64h-2.66h-20.22
	h-0.03h-13.01l-0.9-10.09h13.91h0.03h23.74h0.029l0.2-2.221l0.45-5l0.24-2.64H780.41z"/>
<path fill="#F0E9D7" d="M741.051,319.279l7.16,80.361l32.15,8.93l32.239-8.94l7.181-80.351H741.051z M806.461,394.51l-25.45,7.061
	v0.17l-0.3-0.09l-0.3,0.09v-0.17l-25.45-7.061l-6.13-68.66h63.76L806.461,394.51z"/>
<rect x="820.35" y="126.79" fill="none" width="0.15" height="0.15"/>
<rect x="835.85" y="379.73" fill="none" width="0.03" height="0.029"/>
<rect x="446.45" y="126.79" fill="none" width="0.149" height="0.15"/>
<rect x="1194.25" y="126.79" fill="none" width="0.15" height="0.15"/>
<path fill="none" stroke="#BE9360" stroke-width="2" stroke-miterlimit="10" d="M1675.16,9.39H265.92V531.32h1408.82L1675.16,9.39z"
	/>
</svg>
