<svg width="86" height="86" viewBox="0 0 86 86" fill="none" xmlns="http://www.w3.org/2000/svg">
<path d="M42.73 84.46C65.7768 84.46 84.46 65.7768 84.46 42.73C84.46 19.6831 65.7768 1 42.73 1C19.6831 1 1 19.6831 1 42.73C1 65.7768 19.6831 84.46 42.73 84.46Z" fill="#F1C74F" stroke="#BE9360" stroke-width="2" stroke-miterlimit="10"/>
<path d="M42.7298 77.8901C62.1481 77.8901 77.8898 62.1483 77.8898 42.73C77.8898 23.3116 62.1481 7.57007 42.7298 7.57007C23.3115 7.57007 7.56982 23.3116 7.56982 42.73C7.56982 62.1483 23.3115 77.8901 42.7298 77.8901Z" stroke="#BE9360" stroke-width="2" stroke-miterlimit="10"/>
<path d="M31.4598 20.6101C30.8598 22.2301 30.1398 24.19 29.4598 25.77C30.5913 26.9423 31.2347 28.501 31.2598 30.1301C31.31 30.5474 31.266 30.9706 31.131 31.3687C30.9961 31.7667 30.7735 32.1293 30.4797 32.4299C30.1688 32.6531 29.8016 32.7848 29.4197 32.8101C28.9807 32.8506 28.5388 32.8506 28.0997 32.8101C28.0668 32.3483 27.9373 31.8986 27.7197 31.49C28.1054 31.5291 28.4941 31.5291 28.8798 31.49C29.0991 31.4883 29.3136 31.426 29.4998 31.3101C29.6617 31.1218 29.7826 30.9019 29.8549 30.6643C29.9272 30.4267 29.9493 30.1765 29.9197 29.9299C29.8611 28.3962 29.217 26.9434 28.1198 25.8701C28.6998 24.4301 29.2998 22.7101 29.6998 21.3901H26.7897V37.45H25.4697V20.03H30.2598L30.4797 19.97L31.4598 20.6101ZM42.3798 30.6101C41.2895 31.4821 40.1401 32.2772 38.9398 32.99C39.8866 34.4057 41.229 35.5116 42.7997 36.1699C42.4191 36.5501 42.0836 36.9729 41.7997 37.4299C38.6797 35.9499 36.7997 32.8899 35.7997 28.9299H33.8798V35.51L37.3998 34.6499C37.3929 35.1046 37.4196 35.5593 37.4797 36.01C33.3597 37.13 32.7597 37.3301 32.3597 37.5901C32.2035 37.152 31.981 36.7406 31.6998 36.3701C31.9439 36.2317 32.1432 36.0262 32.2744 35.7781C32.4055 35.53 32.4629 35.2496 32.4398 34.97V20.1899H41.1797V28.9299H37.0598C37.3344 29.9726 37.7305 30.9795 38.2397 31.9299C39.3238 31.2032 40.3655 30.4154 41.3597 29.5701L42.3798 30.6101ZM33.8798 21.51V23.9099H39.7397V21.51H33.8798ZM33.8798 27.6301H39.7397V25.1499H33.8798V27.6301Z" fill="#590A10"/>
<path d="M62.6001 35.8901V37.05H44.6001V35.8901H52.8701V34.77H46.2601V33.77H52.8701V32.6699H46.8701V27.6699H60.5601V32.6699H54.2601V33.77H60.9801V34.77H54.2601V35.9299L62.6001 35.8901ZM62.5001 26.71H44.6901V25.5701H62.5001V26.71ZM59.9601 24.71H47.1701V19.8701H59.9601V24.71ZM48.2001 29.6101H52.8401V28.49H48.2001V29.6101ZM52.8401 31.6101V30.47H48.2001V31.6101H52.8401ZM58.5001 20.75H48.6001V21.8301H58.5001V20.75ZM58.5001 22.6899H48.6001V23.79H58.5001V22.6899ZM59.1001 28.47H54.2601V29.5901H59.0601L59.1001 28.47ZM59.1001 30.47H54.2601V31.6101H59.0601L59.1001 30.47Z" fill="#590A10"/>
<path d="M25.8198 62.5601L27.1698 60.76C27.8474 61.5232 28.6789 62.1344 29.6096 62.5532C30.5403 62.972 31.5492 63.189 32.5698 63.1899C35.1498 63.1899 37.2498 61.19 37.2498 58C37.2498 54.81 35.4498 53 32.6898 53C31.3606 53.0127 30.0732 53.4665 29.0298 54.29L27.5598 53.3901L28.2498 43.1001H38.9598V45.4399H30.6498L30.1098 51.8C31.1003 51.2177 32.2309 50.9168 33.3798 50.9299C37.0398 50.9299 40.0098 53.0899 40.0098 57.9299C40.0675 58.9074 39.9234 59.8862 39.5867 60.8057C39.25 61.7251 38.7278 62.5654 38.0526 63.2744C37.3773 63.9834 36.5634 64.5461 35.6615 64.9272C34.7596 65.3084 33.7889 65.4999 32.8098 65.49C31.5046 65.5172 30.2082 65.2705 29.0043 64.7659C27.8003 64.2612 26.7155 63.5098 25.8198 62.5601Z" fill="#590A10"/>
<path d="M50.4899 49.52C49.9414 50.9861 49.2725 52.4043 48.4899 53.76V67.27H47.0099V56.0801C46.4067 56.9371 45.738 57.7461 45.0099 58.5C44.7879 57.9822 44.5059 57.4923 44.1699 57.04C46.3537 54.7717 48.0308 52.0653 49.09 49.1001L50.4899 49.52ZM62.33 65.05V66.49H49.89V65.05H56.89C57.7145 61.7863 58.3488 58.4774 58.7899 55.1401L60.33 55.4199C59.81 58.4799 58.99 62.42 58.27 65.05H62.33ZM61.52 54.05H50.7299V52.6101H61.52V54.05ZM53.39 64.05C53.1076 61.1854 52.6534 58.3402 52.0299 55.53L53.3699 55.23C54.0138 58.0014 54.5078 60.8056 54.8499 63.6301L53.39 64.05ZM55.65 52.3501C55.4167 51.2681 55.1025 50.2049 54.71 49.1699L56.1099 48.8101C56.4984 49.8248 56.8322 50.8595 57.1099 51.9099L55.65 52.3501Z" fill="#590A10"/>
</svg>
