<svg width="260" height="175" viewBox="0 0 260 175" fill="none" xmlns="http://www.w3.org/2000/svg">
<g opacity="0.7">
<g opacity="0.7">
<path opacity="0.7" d="M109.41 156.43C102.52 151.02 95.18 145.82 90.16 138.51C79.6362 125.512 71.4327 110.796 65.91 95.01C62.55 84.81 61.4 73.87 57.07 64.01C52.54 56.89 57.85 49.11 65.65 46.84C69.12 46.17 75.23 42.9 67.86 45.24C61.25 50.09 60.61 40.84 67.38 40.24C72.01 39.63 73.71 35.8401 72.13 32.4301C67.13 29.2001 84.13 25.6401 75.61 20.8101C66.7 11.1901 88.08 9.34001 82.81 20.26C81.54 28.66 97.75 18.72 93.99 28.42C97.81 33.08 108.29 29.48 107.99 36.01C113.56 36.39 115.47 41.0799 120.7 41.4399C126.11 43.8799 135.93 45.81 137.77 51.91C132.4 56.17 119.96 43.13 119.36 54.91C120.98 72.3 120.57 90.22 126.93 106.78C129.93 116.78 137.24 124.71 143.83 132.52C150.13 140.17 158.67 145.52 167.38 150.09C175.083 153.63 183.215 156.148 191.57 157.58C194.95 154.99 200.9 145.4 206.17 149.44C206.42 153.99 195.72 158.95 205.67 158.44C211.51 156.68 215.56 162.95 220.37 157.29C224.8 162.54 238.79 153.94 235.64 164.67C231.37 167.42 225.15 165.76 220.88 169.54C213.88 166.02 208.24 172.69 200.44 171.84C191.775 173.338 182.994 174.071 174.2 174.03C159.8 172.9 145.1 172.42 131.4 167.4C123.68 165.16 116.15 160.77 109.4 156.4L109.41 156.43ZM121.57 161.7C129.11 164.96 136.47 168.39 144.73 169.43C157.83 171.25 171.36 174.05 184.51 171.5C178.51 168.81 172.41 172.5 166.51 169.58C159.4 171.11 151.77 169.19 144.51 168.24C136.29 164.58 127.42 162.06 119.72 157.31C110.1 153.8 124.72 161.81 127.29 162.46C133.29 165.88 120.68 160.71 118.9 159.3C113.9 156.47 113.22 157.06 118.4 159.93C119.4 160.54 120.48 161.18 121.57 161.7ZM107.23 151.57C114.53 154.27 107.23 146.43 103.85 146.89C102.37 144.32 98.19 142.69 101.14 141.31C95.83 143.15 95.58 134.31 93.09 135.57C87.48 133.8 90.9 127.57 84.22 123.66C83.61 119.6 77.58 116.08 75.65 109.95C74.8 106.81 68.84 97.7999 72.5 106.19C75.62 114.26 81.11 121.19 85.68 128.08C89.23 134.65 93.42 141.52 99.88 145.62C102.05 147.71 104.16 150.91 107.23 151.62V151.57ZM86.23 128.47L116.01 154.81L120.01 156.26L125.01 158.33L133.52 163.06L117.19 151.68L120.91 153.54L139.51 165.15C142.51 167.04 156.97 169.28 147.91 165.92C146.29 166.24 131 161.6 139.4 165.15L86.23 128.47ZM56.7 105.47L65.36 110.47L72.64 114.93L53.18 101.58C56.68 104.27 67.33 101.93 58.55 99.97C54.55 97.84 45.55 96.39 51.69 101.26L53.18 101.58L56.7 105.47ZM81.1 120.36L73.68 114.47C82.26 116.9 66.47 109.04 71.56 113.58L72.69 114.09L73.69 114.47L81.1 120.36ZM95.97 128.95C104.09 129.03 88.63 127.83 95.97 128.95V128.95ZM60.97 106.66L109.69 136.66L74.84 115.15L61.74 105.71L46.22 95.71L86.95 121.56L112.31 137.12L84.71 119.24L65.82 107.24L97.82 127.1L60.97 106.66ZM123.4 142.75C129.64 143.56 115.99 138.51 122.04 142.3L123.4 142.75ZM145.07 156.07C150.89 152.6 148.97 164.22 154.94 157.07C160.83 152.77 149.85 162.38 157.11 157.83C162.36 154.32 170.11 159.5 175.02 161.19C178.54 161.01 181.97 164.19 185.58 162.28C192.58 160.4 171.98 159.5 177.37 156.17C171.01 158.03 166.31 153.97 163.18 149.89C156.04 148.24 147.79 144.6 144.23 138.28C142.78 135.91 146.33 138.61 142.97 134.74C138.67 130.91 136.53 126.57 133.64 121.92C130.19 120.08 129.79 114.67 129.44 121.74C129.44 117.28 125.28 114.27 124.25 115.52C124.25 111.22 128.74 113.38 125.59 110.2C124.91 105.74 122.67 101.1 122 96.0699C121 93.6399 121.85 88.4499 118.44 93.9399C117.2 99.7399 118.03 86.8099 119.96 91.0699C122.5 86.7199 119.05 87.23 118.96 87.84C120.61 84.16 119.96 78.9599 118.53 80.9399C119.41 77.0499 119.92 66.62 117.21 68.47C118.85 64.4 120.33 49.85 113.21 55.4C109.684 55.5407 106.209 56.2918 102.94 57.62C110.37 61.71 102.2 59.1 99.18 58.45C98.78 62.24 95.79 60.6 92.05 60.64C98.05 61.38 89.15 66.74 85.72 64.64C81.27 66.76 89.56 72.07 85.81 73.71C86.27 76.19 78.99 72.82 79.57 78.53C75.25 76.71 78.97 85.31 81.13 82.4C88.48 84.4 86.3 88.92 86.49 93.23C85.29 95.74 80.58 87.33 85.49 87.72C81.66 81.49 81.25 85.47 78.06 88.36C77.32 88.57 86.19 92.48 80.63 94.36C85.52 95.12 85.63 99.36 86.63 102.11C89.57 105.18 88.97 98.73 92.49 102.41C90.26 99.13 80.69 93.16 88.39 95.08C88.39 91.77 87 89.0801 89.39 89.1801C91.73 84.9401 86.94 99.62 92.21 94.24C93.67 93.6 94.03 90 96.66 94.58C100.47 98.32 98.03 101.04 92.66 97.58C93.66 100.84 99.85 102 98.66 107.1C99.9 111.59 101.66 109.94 103.15 109.68C104.33 114.04 105.01 110.83 105.06 108.76C110.5 109.92 109.22 113.13 110.93 115.38C114.67 117.07 105.57 103.92 111.99 111.38C118.76 117.49 114.53 120.04 108.46 119.06C112.3 118.75 113.54 124.26 118.35 124.06C122.73 126.15 125.7 134.15 118.14 130.82C115.52 128.46 106.25 125.54 113.82 130.04C120.82 133.28 126.37 135.21 133.12 139.28C137.94 142.72 140.03 146.67 141.86 147.45C137.8 149.39 129.63 145.9 135.7 144.84C131.91 144.15 127.7 142.23 131.28 146.95C134.36 149.52 142.2 149.25 143.61 149.54C142.41 152.16 140.37 152.37 143.61 152.54C139.95 154.54 144.79 154.79 145.13 155.9L145.07 156.07ZM137.58 134.92C135.35 132.59 134.77 128.23 137.18 132.03C138.42 132.52 141.18 139.16 137.58 134.92ZM161.97 150.42L134.06 129.21L131.64 125.95L161.97 150.42ZM125.67 118.36L109.15 106.87L123.33 111.42C120.67 105.42 125.21 108.17 123.91 112.42L123.33 111.42L125.67 118.36ZM101.22 102.05C100.04 100.1 98.07 94.37 98.7 92.63C99.28 95.47 104.76 104.88 101.39 96.52C97.67 89.52 105.84 98.8 106.68 100.52C107.07 102.26 104.38 100.05 106.2 104.12C100.52 92.56 101.87 99.75 98.85 95.11L101.22 102.05ZM93.67 96.85L97.07 98.02L88.89 91.6899C86.08 88.8999 84.04 86.32 89.02 89.96C90.94 90.03 84.76 84.0999 89.48 88.0699C92.08 82.0399 89.57 89.28 86.52 84.75L93.67 96.85ZM97.97 96.74L100.61 97.59L95.35 92.59C87.18 85.31 105.63 96.3899 96.69 93.9399L95.35 92.59L97.97 96.74ZM121.4 110.35C117.86 108.23 120.46 95.41 121.67 104.18C125.11 103.07 121.48 108.7 124.05 108.65C113.87 95.94 112.73 97.22 111.63 94.08L121.4 110.35ZM89.79 78.12C84.54 70.87 105.06 85.45 93.15 79.96C91.93 79.59 90.43 79.47 89.81 78.08L89.79 78.12ZM106.48 86.96C105.98 80.86 107.59 87.96 106.48 86.96V86.96ZM119.14 95.09L90.59 75.35C93.72 74.68 103.53 80.83 94.52 77.11C93.54 75.96 91.4 76.4601 90.61 75.3101L119.14 95.09ZM145.95 108.45C146.29 102.21 147.82 104.73 145.95 109.35V108.45ZM121.47 92.92C122.74 91.05 118.09 84.4801 122.14 90.5601C123.89 91.9501 127.2 92.89 124.27 93.48C100.35 77.75 94.62 74.8 92.94 73.14L121.47 92.92ZM116.1 86.75L90.29 66.5699L116.1 86.75ZM96.29 70.17L113.29 79.65L112.29 77.46L110.83 73.64C110.44 71.23 112.18 76.64 110.83 73.64L96.29 70.17ZM98.66 66.33C97.03 63.47 100.66 53.72 101.12 59.77C99.4 64.47 100.62 67.11 101.82 60.77C104.02 55.77 101.34 70.5801 98.66 66.3101V66.33ZM101.09 51.84L97.03 131.76L105.39 135.99C110.03 137.18 110.01 135.26 105.81 134.69C103.55 132.59 96.42 130.36 102.81 134.43C103.23 135.5 104.57 135.43 105.4 135.99L101.09 51.84ZM84.58 40.84C87.14 42.75 94.23 46.2501 88.23 41.5601C90.23 39.2101 84.36 37.96 86.31 36.39C81.31 33.39 82.39 33.62 85.88 33.72C79.88 31.05 86.74 31.25 86.42 29.88C84.11 29.42 74.97 25.81 80.35 30.17C74.88 27.39 79.05 31.1701 77.35 30.8101C71.76 29.2801 82.35 35.06 76.46 33.63C79.66 36.17 85.09 40.1399 77.81 36.3199C76.81 37.6999 83.02 39.79 84.53 40.84H84.58ZM93.32 45.84L138.06 72.9399L142.66 74.87C145.11 72.5 142.76 78.66 146.72 74.29C146.72 71.17 146.6 69.29 142.17 73.12C140.94 73.79 140.4 76.67 142.66 74.87L93.32 45.84ZM20.32 0L25.23 3.21997L20.32 0ZM121.44 136.75C124.17 139.17 133.96 138.52 124.75 137.05C123.39 135.06 116.09 135.54 121.44 136.75ZM159.84 160.46L168.57 166.46V164.88C173.22 159.95 164.07 165.17 168.57 164.88L159.84 160.46ZM67.78 102.15C63.78 96.5 65.32 93.96 61.5 89.35C60.78 85.82 54.95 77.81 58.5 86.29C70.46 95.75 71.43 103.39 76.52 106.6L67.78 102.15ZM158.38 158.89L164.91 161.45L78.4 106.02L158.38 158.89ZM172.29 164.15C176.43 161.48 171.29 161.89 171.53 164.4L172.29 164.15ZM116.02 128.69L119.5 130.69L178.94 165.96C184.25 162.13 175.72 165.23 177.82 166.69L178.94 165.96L116.02 128.69ZM114.02 127.69L124.41 134.61L26.92 71.86C30.81 72.73 42.48 81.45 35.6 72.47C32.07 71.47 34.18 62.8 30.6 64.33C33.01 68.33 32.6 70.08 27.52 67.54C21.15 64.43 23.94 69.08 25.18 70.36C23.49 70.74 27.43 71.83 26.93 71.86L114.02 127.69ZM96.27 113.69C96.97 110.81 89.85 97.8299 92.91 107.19C69.81 90.5999 69.7 94.31 72.06 95.14L96.27 113.69ZM128.84 133.77L133.78 134.92L176.57 161.92C175.75 159.84 173.34 161.92 176.57 161.92L128.84 133.77ZM130.9 135.27L147.9 145.96L57.45 87.83L125.11 130.46L55.6 83.54L64.3 87.75L170.41 152.82C174.27 152.04 183.05 154.82 184.47 151.82C179.79 151.7 168.28 148.52 167.73 152.58L168.73 152.74L170.38 152.84L130.9 135.27ZM27.56 70.9L4.68002 55.03L10.14 56.4L13.26 57.9301L32.87 70.51L11.18 54.51L0 47.25L1.66 46L10.85 51.48C14.74 49.96 3.77 48.33 10.06 51.2L27.56 70.9ZM150.56 146.9L165.42 154.6L150.56 146.9ZM61.7 64.99C61 60.99 61.1 53.89 67.82 56.28C58.82 58.06 74.02 67.43 72.11 60.03C75.88 60.22 79.48 57.8 77.51 61.47C84.94 60.64 90.09 54.2 97.26 55.1C102.85 54.36 108.97 53.8 114.99 51.55C119.99 51.2001 124.71 45.86 121.99 42.7C115.23 42.13 108.16 42.98 100.7 44.46C92.42 46.18 84.91 49.46 76.56 50.85C68.42 51.94 78.2 53.85 75.87 54.29C71.62 55.76 80.93 56.76 75.32 58.29C71.85 57.63 68.24 56.44 69.72 52.78C61.93 53.78 55.08 57.03 61.24 64.96L61.7 64.99ZM80.48 55.42C82.31 48.69 90.28 60.9601 83.48 56.3101C82.6268 55.6489 81.5552 55.3346 80.48 55.4301V55.42ZM80.84 52.16H84.19C84.43 49.06 91.86 53.8 85.41 53.28L84.19 52.16H80.84ZM85.42 50.3199L86.59 49.53C89.38 46.19 102.37 47.4 92.86 49.21C93.66 47.35 91.71 50.4 89.94 49.59L85.42 50.3199ZM102.42 47.71H107.23C108.99 43.11 114.06 45.86 108.05 46.79C112.65 46.52 112.34 48.41 111.7 46.95L102.42 47.71ZM63.6 72.15C68.86 68.93 58.03 69.36 63.6 72.15V72.15ZM220.44 161.41L204.68 150.65L224.78 162.45C228.98 162.45 237.5 161.14 228.36 161.15C226.93 161.37 220.01 161.32 224.78 162.45L220.44 161.41ZM80.19 70.58C83.58 70.35 85.5 66.84 79.53 67.04C70.27 66.04 87.7 70.21 78.34 69.04C77.08 69.86 80.11 70.81 80.19 70.58ZM83.19 72.1L86.74 62.63L83.19 72.1ZM75.43 43.75C81.49 41.68 89.78 39.37 92.65 44.75C89.73 41.25 91.47 37.75 94.22 42.92C98.11 48.11 100.06 40.5599 97.53 38.8199C100.41 42.4099 103.69 44.1 99.46 39.05C104.06 33.51 90.25 39.77 87.11 39.71C85.6 40.4 71.52 43.31 75.43 43.75ZM78.98 36.9399C82.44 34.3299 90.98 38.49 85.49 34.35C84.95 33.88 73.54 37.4899 78.98 36.9399ZM91.59 37.46C95.64 37.57 89.84 32.03 94.67 34.54C93.87 31.95 89.05 31.4601 86.67 30.4301C85.36 32.8001 89.41 37.49 91.59 37.46ZM81.19 26.02L86.34 27.25C92.87 26.39 84.68 24.4401 85.03 27.1801L86.34 27.25L81.19 26.02ZM71.57 18.49C66.98 12.49 80.21 19.49 75.57 13.23C76.77 11.33 72.99 17.97 76.72 19.75L71.57 18.49ZM130.51 50.24C132.61 46.5 121.81 45.24 129.09 48.91C134.91 50.37 134.75 51.75 135.66 51.47L130.51 50.24Z" fill="black"/>
<path opacity="0.7" d="M197.73 0.619995H221.2V108.19C211.18 110.25 200.98 111.312 190.75 111.36C162.09 111.36 147.17 98.5301 147.17 73.9301C147.17 50.2301 162.99 34.85 187.52 34.85C190.962 34.7856 194.397 35.1894 197.73 36.05V0.619995ZM198.55 55.4301C195.999 54.5892 193.325 54.1868 190.64 54.24C178.77 54.24 171.91 61.48 171.91 74.17C171.91 86.52 178.47 93.35 190.49 93.35C193.188 93.3473 195.882 93.1468 198.55 92.75V55.4301Z" fill="black"/>
<path opacity="0.7" d="M259.58 37.75V91.61C259.58 110.16 258.2 119.08 254.12 126.77C250.31 134.16 245.3 138.83 234.94 143.97L213.16 133.75C223.52 128.94 228.53 124.68 231.73 118.19C235.09 111.55 236.14 103.86 236.14 83.63V37.75H259.58ZM233.78 0.630005H257.29V24.48H233.78V0.630005Z" fill="black"/>
</g>
</g>
</svg>
