<svg width="232" height="232" viewBox="0 0 232 232" fill="none" xmlns="http://www.w3.org/2000/svg">
<g opacity="0.7">
<g opacity="0.7">
<path opacity="0.7" d="M115.72 228.42C178.51 228.42 229.41 177.519 229.41 114.73C229.41 51.9408 178.51 1.04001 115.72 1.04001C52.931 1.04001 2.03027 51.9408 2.03027 114.73C2.03027 177.519 52.931 228.42 115.72 228.42Z" fill="white"/>
<path opacity="0.7" d="M16.4302 115.6C16.4227 134.228 21.661 152.482 31.5453 168.272C41.4297 184.061 55.5606 196.748 72.3202 204.88L25.0102 75.24C19.3418 87.9396 16.4181 101.693 16.4302 115.6Z" fill="#00749A"/>
<path opacity="0.7" d="M182.54 110.59C182.54 98.34 178.14 89.85 174.36 83.24C169.36 75.07 164.63 68.16 164.63 59.99C164.63 50.87 171.54 42.38 181.28 42.38C181.72 42.38 182.14 42.44 182.56 42.46C171.973 32.7623 159.405 25.48 145.727 21.1167C132.048 16.7533 117.585 15.413 103.338 17.1884C89.0903 18.9639 75.3985 23.8127 63.2092 31.3997C51.0199 38.9866 40.624 49.1305 32.7402 61.13C35.0702 61.2 37.2602 61.25 39.1202 61.25C49.4902 61.25 65.5502 59.99 65.5502 59.99C70.9002 59.67 71.5502 67.53 66.1902 68.16C66.1902 68.16 60.8102 68.79 54.8402 69.1L90.9502 176.52L112.66 111.43L97.2102 69.1C91.8702 68.79 86.8102 68.16 86.8102 68.16C81.4702 67.84 82.0902 59.67 87.4402 59.99C87.4402 59.99 103.82 61.24 113.56 61.24C123.93 61.24 139.99 59.99 139.99 59.99C145.34 59.67 145.99 67.52 140.62 68.16C140.62 68.16 135.24 68.79 129.27 69.1L165.11 175.7L175 142.65C179.28 128.93 182.54 119.08 182.54 110.59Z" fill="#00749A"/>
<path opacity="0.7" d="M117.34 124.27L87.5801 210.73C107.575 216.623 128.917 216.07 148.58 209.15C148.304 208.715 148.066 208.256 147.87 207.78L117.34 124.27Z" fill="#00749A"/>
<path opacity="0.7" d="M202.66 68.02C203.113 71.3977 203.337 74.8021 203.33 78.21C203.33 88.28 201.45 99.59 195.79 113.73L165.5 201.31C187.842 188.316 204.227 167.113 211.168 142.217C218.109 117.321 215.056 90.6987 202.66 68.02Z" fill="#00749A"/>
<path opacity="0.7" d="M115.6 0C92.7365 0 70.3864 6.77983 51.3761 19.4821C32.3658 32.1844 17.5491 50.2387 8.79958 71.3618C0.0500898 92.4849 -2.23918 115.728 2.22127 138.152C6.68172 160.577 17.6916 181.175 33.8585 197.342C50.0255 213.508 70.6234 224.518 93.0476 228.979C115.472 233.439 138.715 231.15 159.838 222.4C180.961 213.651 199.016 198.834 211.718 179.824C224.42 160.814 231.2 138.464 231.2 115.6C231.166 84.9515 218.975 55.5682 197.304 33.8965C175.632 12.2247 146.249 0.0344083 115.6 0ZM115.6 225.9C93.7844 225.902 72.458 219.435 54.318 207.316C36.1779 195.197 22.0389 177.971 13.689 157.817C5.33911 137.662 3.1534 115.484 7.40822 94.0877C11.663 72.6909 22.1673 53.0364 37.5926 37.6097C53.0179 22.1829 72.6715 11.6769 94.0679 7.42012C115.464 3.16336 137.642 5.34708 157.798 13.6951C177.953 22.0432 195.18 36.1806 207.3 54.3196C219.421 72.4585 225.89 93.7843 225.89 115.6C225.853 144.838 214.221 172.869 193.545 193.542C172.87 214.216 144.839 225.846 115.6 225.88V225.9Z" fill="#00749A"/>
</g>
</g>
</svg>
