<svg width="216" height="235" viewBox="0 0 216 235" fill="none" xmlns="http://www.w3.org/2000/svg">
<g opacity="0.7">
<g opacity="0.7">
<path opacity="0.7" d="M161.537 34.437H165.997L178.717 20.927L179.347 15.1971C155.677 -6.99295 119.547 -4.6031 98.6469 20.5369C92.7955 27.6183 88.5909 35.9116 86.3369 44.8169C87.7456 44.207 89.323 44.1079 90.7969 44.5369L116.237 40.0769C116.237 40.0769 117.537 37.8071 118.237 37.9471C129.547 24.7471 148.587 23.207 161.657 34.437H161.537Z" fill="#E94335"/>
<path opacity="0.7" d="M196.837 44.8169C193.998 33.523 188.009 23.268 179.567 15.2468L161.717 34.197C165.487 37.5381 168.483 41.6618 170.495 46.2803C172.508 50.8988 173.488 55.9007 173.367 60.937V64.2969C182.137 64.2969 189.247 71.857 189.247 81.177C189.247 90.497 182.137 98.0469 173.367 98.0469H141.587L138.417 101.457V121.697L141.587 125.067H173.367C196.187 125.257 214.837 105.757 215.007 81.5168C215.121 74.3945 213.531 67.3481 210.371 60.9644C207.21 54.5806 202.57 49.0444 196.837 44.8169Z" fill="#4284F3"/>
<path opacity="0.7" d="M109.767 124.877H141.547V97.877H109.767C107.493 97.874 105.25 97.3542 103.207 96.3569L98.7469 97.8269L85.9369 111.337L84.8169 116.077C91.878 121.785 100.687 124.892 109.767 124.877Z" fill="#34A753"/>
<path opacity="0.7" d="M109.767 37.2371C86.9467 37.3771 68.5567 57.147 68.6867 81.387C68.6782 87.9733 70.1188 94.4809 72.9063 100.448C75.6939 106.416 79.7601 111.697 84.8167 115.917L103.247 96.3369C95.2467 92.5069 91.6967 82.5068 95.3167 74.0168C98.9367 65.5268 108.317 61.7469 116.317 65.5869C119.896 67.3406 122.715 70.337 124.247 74.0168L142.687 54.437C138.969 49.1525 134.041 44.8339 128.314 41.8418C122.587 38.8497 116.228 37.2709 109.767 37.2371Z" fill="#FABB05"/>
<path opacity="0.7" d="M45.1469 173.727C45.1033 175.334 45.3022 176.939 45.7369 178.487C46.2074 179.811 46.7756 181.097 47.4369 182.337C47.6781 182.702 47.8099 183.129 47.8169 183.567C47.7866 183.893 47.6804 184.208 47.5067 184.486C47.3331 184.763 47.0969 184.997 46.8169 185.167L43.4669 187.417C43.0605 187.709 42.5772 187.876 42.0769 187.897C41.4696 187.852 40.9001 187.585 40.477 187.147C39.7631 186.369 39.1204 185.529 38.5569 184.637C38.0269 183.727 37.497 182.707 36.907 181.477C35.0345 183.822 32.6492 185.707 29.9344 186.987C27.2196 188.266 24.2477 188.906 21.2469 188.857C16.7669 188.857 13.2469 187.577 10.5869 185.007C7.901 182.059 6.48935 178.169 6.65982 174.185C6.83028 170.2 8.56901 166.445 11.4969 163.737C14.7469 160.957 19.0569 159.567 24.5469 159.567C26.4378 159.582 28.3255 159.725 30.1969 159.997C32.1969 160.267 34.1969 160.687 36.3269 161.167V157.267C36.3269 153.207 35.4669 150.377 33.8169 148.717C32.1669 147.057 29.2369 146.257 25.1369 146.257C23.1958 146.259 21.262 146.494 19.3769 146.957C17.4204 147.426 15.4991 148.03 13.6269 148.767C13.0204 149.043 12.3956 149.277 11.7569 149.467C11.4824 149.56 11.1963 149.613 10.907 149.627C10.167 149.627 9.78696 149.097 9.78696 147.967V145.347C9.73081 144.7 9.86278 144.051 10.167 143.477C10.5655 142.988 11.0769 142.604 11.657 142.357C13.7923 141.298 16.0443 140.492 18.3669 139.957C21.0812 139.261 23.8751 138.925 26.6769 138.957C33.0169 138.957 37.6769 140.397 40.6769 143.287C43.6769 146.177 45.097 150.557 45.097 156.437V173.747L45.1469 173.727ZM23.5169 181.857C25.389 181.823 27.2432 181.486 29.0069 180.857C30.9635 180.174 32.7077 178.991 34.0669 177.427C34.927 176.443 35.5466 175.272 35.8769 174.007C36.2424 172.484 36.4205 170.923 36.407 169.357V167.117C34.7921 166.721 33.1561 166.417 31.5069 166.207C29.8484 165.998 28.1786 165.891 26.5069 165.887C22.9369 165.887 20.3269 166.587 18.5669 168.027C17.6858 168.778 16.9913 169.724 16.5384 170.789C16.0854 171.855 15.8864 173.011 15.9569 174.167C15.9569 176.687 16.5969 178.557 17.9569 179.837C18.7006 180.54 19.5825 181.082 20.5466 181.426C21.5107 181.77 22.5358 181.91 23.5569 181.837L23.5169 181.857ZM66.2969 187.627C65.5868 187.696 64.876 187.504 64.2969 187.087C63.7363 186.512 63.3482 185.791 63.1769 185.007L50.657 143.697C50.4144 143.005 50.2533 142.286 50.1769 141.557C50.1499 141.38 50.1639 141.199 50.2177 141.029C50.2716 140.858 50.3639 140.702 50.4875 140.572C50.6112 140.443 50.7628 140.344 50.9309 140.282C51.0989 140.22 51.2789 140.198 51.4569 140.217H56.6769C57.4137 140.126 58.1574 140.319 58.7569 140.757C59.2895 141.343 59.6555 142.061 59.8169 142.837L68.8169 178.217L77.1269 142.837C77.1281 142.447 77.2147 142.062 77.3804 141.71C77.5461 141.357 77.7871 141.045 78.0863 140.795C78.3856 140.545 78.7359 140.364 79.1126 140.264C79.4893 140.164 79.8833 140.148 80.2669 140.217H84.5269C85.2788 140.135 86.0352 140.326 86.657 140.757C87.2077 141.323 87.5588 142.053 87.657 142.837L96.0769 178.647L105.287 142.837C105.458 142.063 105.826 141.346 106.357 140.757C106.975 140.361 107.704 140.172 108.437 140.217H113.387C113.568 140.194 113.752 140.213 113.924 140.272C114.097 140.331 114.254 140.43 114.382 140.559C114.511 140.689 114.608 140.846 114.666 141.019C114.724 141.192 114.741 141.376 114.717 141.557C114.705 141.842 114.672 142.127 114.617 142.407C114.53 142.864 114.403 143.312 114.237 143.747L101.397 185.057C101.238 185.849 100.848 186.576 100.277 187.147C99.6824 187.529 98.9827 187.714 98.2769 187.677H93.6969C92.9467 187.756 92.1926 187.568 91.5669 187.147C91.017 186.556 90.6671 185.807 90.5669 185.007L82.3169 150.537L74.0769 184.957C73.9534 185.748 73.6064 186.487 73.0769 187.087C72.4508 187.508 71.698 187.699 70.9469 187.627H66.2969ZM134.767 189.067C132.004 189.057 129.251 188.721 126.567 188.067C124.436 187.634 122.374 186.914 120.437 185.927C119.752 185.604 119.178 185.086 118.787 184.437C118.576 183.965 118.467 183.454 118.467 182.937V180.207C118.467 179.087 118.887 178.557 119.687 178.557C120.027 178.552 120.365 178.606 120.687 178.717C121.007 178.817 121.487 179.037 122.017 179.247C123.899 180.074 125.863 180.701 127.877 181.117C129.963 181.542 132.088 181.756 134.217 181.757C137.577 181.757 140.217 181.177 141.997 179.997C142.866 179.47 143.581 178.723 144.067 177.831C144.554 176.938 144.795 175.933 144.767 174.917C144.802 173.531 144.288 172.186 143.337 171.177C142.337 170.177 140.567 169.257 137.947 168.397L130.227 165.997C126.337 164.767 123.457 162.947 121.697 160.547C119.986 158.324 119.052 155.602 119.037 152.797C118.993 150.725 119.489 148.678 120.477 146.857C121.429 145.142 122.735 143.65 124.307 142.477C125.969 141.214 127.851 140.272 129.857 139.697C132.037 139.066 134.298 138.76 136.567 138.787C137.76 138.78 138.953 138.854 140.137 139.007C141.357 139.167 142.477 139.377 143.597 139.597C144.717 139.817 145.677 140.127 146.597 140.447C147.376 140.702 148.127 141.037 148.837 141.447C149.464 141.769 150.01 142.226 150.437 142.787C150.784 143.306 150.953 143.924 150.917 144.547V147.057C150.917 148.187 150.487 148.767 149.687 148.767C148.985 148.686 148.305 148.469 147.687 148.127C144.464 146.7 140.971 145.991 137.447 146.047C134.447 146.047 132.017 146.527 130.367 147.547C129.553 148.032 128.888 148.732 128.445 149.57C128.002 150.407 127.799 151.351 127.857 152.297C127.844 153.007 127.979 153.712 128.255 154.366C128.53 155.021 128.94 155.61 129.457 156.097C131.187 157.469 133.182 158.47 135.317 159.037L142.887 161.437C146.727 162.667 149.497 164.377 151.147 166.567C152.772 168.719 153.634 171.351 153.597 174.047C153.626 176.194 153.15 178.318 152.207 180.247C151.264 182.078 149.937 183.685 148.317 184.957C146.561 186.332 144.553 187.351 142.407 187.957C139.939 188.718 137.369 189.096 134.787 189.077L134.767 189.067Z" fill="white"/>
<path opacity="0.7" d="M144.837 215.047C127.307 228.047 101.837 234.927 79.9368 234.927C50.6709 235.069 22.4098 224.261 0.706859 204.627C-0.943141 203.127 0.556866 201.097 2.52687 202.267C23.5577 214.435 47.1257 221.556 71.3759 223.069C95.6261 224.582 119.897 220.446 142.277 210.987C145.207 209.647 147.717 212.907 144.837 215.047Z" fill="#FF9800"/>
<path opacity="0.7" d="M152.137 206.707C149.897 203.817 137.327 205.317 131.627 206.007C129.917 206.227 129.627 204.727 131.197 203.607C141.197 196.547 157.677 198.607 159.597 200.937C161.517 203.267 159.067 219.857 149.687 227.767C148.247 228.997 146.867 228.357 147.507 226.767C149.637 221.457 154.377 209.537 152.137 206.707Z" fill="#FF9800"/>
</g>
</g>
</svg>
