<?xml version="1.0" encoding="utf-8"?>
<!-- Generator: Adobe Illustrator 16.0.0, SVG Export Plug-In . SVG Version: 6.00 Build 0)  -->
<!DOCTYPE svg PUBLIC "-//W3C//DTD SVG 1.1//EN" "http://www.w3.org/Graphics/SVG/1.1/DTD/svg11.dtd">
<svg version="1.1" id="圖層_1" xmlns="http://www.w3.org/2000/svg" xmlns:xlink="http://www.w3.org/1999/xlink" x="0px" y="0px"
	 width="153.5px" height="26px" viewBox="0 0 153.5 26" enable-background="new 0 0 153.5 26" xml:space="preserve">
<path fill="#F1C74F" stroke="#BE9360" stroke-width="2" stroke-miterlimit="10" d="M14.01,2.95L17.4,9.82l7.58,1.1l-5.49,5.34
	l1.3,7.551l-6.78-3.561l-6.78,3.561l1.3-7.551l-5.49-5.34l7.58-1.1L14.01,2.95z"/>
<path fill="#F1C74F" stroke="#BE9360" stroke-width="2" stroke-miterlimit="10" d="M45.51,2.95L48.9,9.82l7.58,1.1l-5.49,5.34
	l1.3,7.551l-6.78-3.561l-6.779,3.561l1.3-7.551l-5.49-5.34l7.58-1.1L45.51,2.95z"/>
<path fill="#F1C74F" stroke="#BE9360" stroke-width="2" stroke-miterlimit="10" d="M77.01,2.95L80.4,9.82l7.58,1.1l-5.49,5.34
	l1.3,7.551l-6.78-3.561l-6.779,3.561l1.3-7.551l-5.49-5.34l7.58-1.1L77.01,2.95z"/>
<path fill="#F1C74F" stroke="#BE9360" stroke-width="2" stroke-miterlimit="10" d="M108.51,2.95l3.391,6.87l7.58,1.1l-5.49,5.34
	l1.3,7.551l-6.78-3.561l-6.779,3.561l1.3-7.551l-5.49-5.34l7.58-1.1L108.51,2.95z"/>
<path fill="#F1C74F" stroke="#BE9360" stroke-width="2" stroke-miterlimit="10" d="M140.01,2.95l3.391,6.87l7.58,1.1l-5.49,5.34
	l1.3,7.551l-6.78-3.561l-6.779,3.561l1.3-7.551l-5.49-5.34l7.58-1.1L140.01,2.95z"/>
</svg>
