<svg width="32" height="27" viewBox="0 0 32 27" fill="none" xmlns="http://www.w3.org/2000/svg">
<path d="M30.9999 15.1289H15.7793V25.7636H30.9999V15.1289Z" fill="#590A10" stroke="#BE9360" stroke-width="2" stroke-miterlimit="10"/>
<path d="M23.3264 16.708C26.6222 16.708 29.2938 14.0362 29.2938 10.7405C29.2938 7.44471 26.6222 4.77295 23.3264 4.77295C20.0306 4.77295 17.3589 7.44471 17.3589 10.7405C17.3589 14.0362 20.0306 16.708 23.3264 16.708Z" fill="#590A10" stroke="#BE9360" stroke-width="2" stroke-miterlimit="10"/>
<path d="M19.8313 13.1553H1V25.6243H19.8313V13.1553Z" fill="#590A10" stroke="#BE9360" stroke-width="2" stroke-miterlimit="10"/>
<path d="M10.3348 15.0012C14.2012 15.0012 17.3355 11.867 17.3355 8.00057C17.3355 4.13415 14.2012 0.999756 10.3348 0.999756C6.46838 0.999756 3.33398 4.13415 3.33398 8.00057C3.33398 11.867 6.46838 15.0012 10.3348 15.0012Z" fill="#590A10" stroke="#BE9360" stroke-width="2" stroke-miterlimit="10"/>
</svg>
